<svg xmlns="http://www.w3.org/2000/svg" xmlns:xlink="http://www.w3.org/1999/xlink" preserveAspectRatio="xMidYMid meet" version="1.0" viewBox="51.0 3.3 413.5 490.0" zoomAndPan="magnify" style="fill: rgb(0, 0, 0);" original_string_length="20895"><g><g id="__id0_sgftfo9cck"><path d="M254.67,403.73c-11.68,0-23.66-1.27-34.67-4.74c-7.83-2.47-13.39-10.88-12.65-19.15 c0.16-1.82,0.39-3.73,0.63-5.75c1.78-14.88,3.99-33.39-13.97-49.43c-1.47-1.32-2.98-2.65-4.5-3.99 c-31.16-27.59-73.83-65.38-46.1-139.77c12.46-33.42,33.39-56.86,60.53-67.79c36.81-14.82,77.05-16.69,107.73-5 c5.02,1.34,50.88,14.81,69.47,63.15c25.52,66.34,3.13,97.04-14.86,121.71l-1.4,1.92c-10.94,15.05-18.76,20.63-25.03,25.11 c-6.74,4.82-11.19,8-17.23,23.09c-5.09,12.73-5.13,22.87-5.16,31.02c-0.01,2.91-0.02,5.66-0.26,8.23 c-0.64,6.98-6.21,13.46-12.97,15.07C292.44,400.24,273.97,403.73,254.67,403.73z M267.22,112.46c-19.07,0-39.4,3.96-58.79,11.77 c-23.92,9.64-42.52,30.68-53.76,60.85c-24.86,66.68,11.09,98.51,42.81,126.59c1.53,1.36,3.05,2.7,4.54,4.03 c22.63,20.2,19.78,44.03,17.89,59.8c-0.23,1.93-0.45,3.76-0.6,5.4c-0.24,2.64,1.85,5.87,4.3,6.64c0,0,0,0,0,0 c26.44,8.32,60.12,2.45,77.84-1.79c1.72-0.41,3.65-2.68,3.82-4.5c0.19-2.05,0.2-4.43,0.21-7.18c0.03-8.69,0.08-20.58,6.02-35.43 c7.34-18.36,13.85-23.01,21.39-28.4c5.86-4.19,12.51-8.94,22.3-22.41l1.4-1.93c17.96-24.63,36.53-50.09,13.36-110.33 c-17.05-44.33-61.12-55.81-61.56-55.92c-0.24-0.06-0.47-0.13-0.7-0.22C295.58,114.77,281.76,112.46,267.22,112.46z" style="fill: rgb(91, 95, 117);"/></g></g><g><g><g id="__id1_sgftfo9cck"><path d="M209.89,389.74c0.2,0.57,0.37,1.15,0.51,1.74c0.05,0.22,0.1,0.44,0.14,0.66c0.02,0.1,0.17,1.03,0.1,0.52 c-0.07-0.46,0.03,0.28,0.03,0.3c0.03,0.3,0.06,0.61,0.08,0.91c0.05,0.69,0.08,1.37,0.1,2.06c0.08,2.29,0.11,4.56,0.42,6.83 c0.56,4.16,2.07,8.48,5.43,11.22c4.2,3.43,9.51,3.33,14.66,3.49c5.06,0.16,10.13,0.29,15.19,0.38 c10.13,0.18,20.26,0.22,30.39,0.05c5.06-0.08,10.13-0.21,15.19-0.4c4.38-0.16,9-0.19,13.13-1.83c5.23-2.08,8.86-6.32,10.26-11.78 c1.44-5.61,0.39-11.36-0.75-16.92c-0.47-2.31-3.33-3.86-5.54-3.14c-2.45,0.79-3.65,3.06-3.14,5.54c0.22,1.09,0.45,2.18,0.64,3.28 c0.08,0.47,0.16,0.94,0.24,1.41c0.15,0.93,0.06,0.43,0.04,0.22c0.04,0.31,0.07,0.63,0.1,0.95c0.11,1.1,0.16,2.21,0.13,3.32 c-0.01,0.51-0.07,1.01-0.1,1.52c-0.02,0.52,0.03-0.18,0.04-0.25c-0.05,0.25-0.08,0.51-0.13,0.76c-0.17,0.88-0.43,1.74-0.73,2.58 c-0.03,0.08-0.29,0.64-0.06,0.17c0.25-0.51-0.12,0.2-0.18,0.32c-0.23,0.45-0.54,0.85-0.77,1.3c-0.22,0.43,0.09-0.08,0.15-0.15 c-0.12,0.15-0.24,0.29-0.37,0.43c-0.29,0.33-0.61,0.63-0.93,0.93c-0.15,0.15-0.65,0.42,0,0.01c-0.16,0.1-0.32,0.22-0.48,0.32 c-0.44,0.28-0.9,0.49-1.35,0.73c-0.45,0.24,0.12-0.05,0.19-0.08c-0.25,0.08-0.48,0.18-0.73,0.26c-0.37,0.12-0.75,0.23-1.12,0.32 c-0.44,0.11-0.89,0.21-1.35,0.29c-0.19,0.04-0.39,0.07-0.59,0.1c-1.24,0.21,0.54-0.03-0.18,0.02c-1.97,0.14-3.93,0.28-5.91,0.35 c-4.73,0.18-9.46,0.31-14.19,0.39c-9.3,0.17-18.6,0.17-27.9,0.04c-4.65-0.07-9.3-0.16-13.95-0.29c-2.41-0.07-4.81-0.14-7.22-0.22 c-0.98-0.03-1.96-0.05-2.94-0.12c-0.28-0.02-0.57-0.04-0.85-0.06c-0.05,0-0.75-0.09-0.25-0.02c0.5,0.07-0.19-0.04-0.24-0.05 c-0.34-0.07-0.68-0.14-1.02-0.24c-0.2-0.06-0.4-0.12-0.6-0.18c0.6,0.19,0.03,0.02-0.26-0.14c-0.16-0.09-0.32-0.19-0.48-0.28 c-0.71-0.39,0.28,0.33-0.05-0.03c-0.26-0.28-0.56-0.59-0.84-0.85c0.59,0.54,0.25,0.36,0.08,0.1c-0.13-0.19-0.25-0.38-0.37-0.58 c-0.24-0.4-0.44-0.82-0.64-1.24c0.42,0.88-0.07-0.26-0.17-0.59c-0.29-0.92-0.45-1.86-0.63-2.81c0.18,0.98-0.01-0.18-0.04-0.58 c-0.05-0.61-0.08-1.22-0.1-1.83c-0.05-1.23-0.06-2.45-0.12-3.68c-0.12-2.66-0.39-5.37-1.25-7.9c-0.76-2.22-3.13-3.92-5.54-3.14 C210.82,384.91,209.07,387.35,209.89,389.74L209.89,389.74z" style="fill: rgb(91, 95, 117);"/></g></g></g><g><g><g id="__id2_sgftfo9cck"><path d="M213,408.37c0.16,0.4,0.3,0.81,0.4,1.23c0.04,0.15,0.16,0.92,0.08,0.3c-0.07-0.58-0.01,0.04,0,0.13 c0.01,0.95-0.04,1.87-0.12,2.81c-0.06,0.69,0.12-0.74,0.01-0.05c-0.03,0.19-0.06,0.38-0.09,0.57c-0.08,0.51-0.16,1.02-0.24,1.53 c-0.18,1.22-0.37,2.44-0.44,3.67c-0.27,4.38,1.37,8.48,4.86,11.17c3.16,2.44,7.11,3.25,10.99,3.64 c4.17,0.42,8.42,0.34,12.61,0.44c9.53,0.21,19.07,0.31,28.6-0.09c4.79-0.2,9.58-0.52,14.35-1.02c4.61-0.48,9.32-0.93,13.84-2.01 c4.86-1.16,9.58-3.57,12.29-7.93c2.49-4.01,3.08-9.73,0.17-13.7c-1.39-1.89-3.97-3.02-6.16-1.61c-1.88,1.21-3.1,4.12-1.61,6.16 c0.2,0.27,0.37,0.56,0.55,0.84c0.51,0.8-0.08-0.19-0.05-0.18c0.06,0.03,0.12,0.4,0.14,0.47c0.01,0.05,0.15,0.44,0.11,0.48 c-0.06,0.07,0.02-0.95-0.05-0.39c-0.05,0.41,0,0.9-0.01,1.32c-0.01,0.53,0.01-0.36,0.05-0.36c-0.02,0-0.1,0.46-0.11,0.5 c-0.09,0.39-0.25,0.76-0.35,1.15c0.01-0.05,0.36-0.72,0.12-0.28c-0.08,0.15-0.15,0.31-0.23,0.47c-0.22,0.41-0.49,0.78-0.73,1.18 c0.39-0.64,0.12-0.16-0.17,0.16c-0.24,0.25-0.49,0.48-0.74,0.71c-0.15,0.13-0.68,0.42-0.04,0.03c-0.17,0.1-0.33,0.23-0.5,0.33 c-0.39,0.25-0.8,0.48-1.21,0.7c-0.18,0.09-0.37,0.17-0.54,0.26c-0.6,0.34,0.62-0.21-0.03,0.02c-0.38,0.13-0.75,0.28-1.14,0.41 c-0.9,0.3-1.82,0.53-2.75,0.74c-1.9,0.42-3.82,0.69-5.75,0.96c0.57-0.08-0.58,0.08-0.74,0.1c-0.48,0.06-0.97,0.12-1.45,0.18 c-1.13,0.13-2.26,0.26-3.39,0.37c-4.37,0.44-8.75,0.74-13.14,0.94c-8.71,0.38-17.43,0.35-26.15,0.18 c-4.26-0.08-8.53-0.17-12.79-0.31c-0.72-0.02-1.44-0.06-2.16-0.12c-0.34-0.03-0.67-0.06-1.01-0.09c-0.07-0.01-0.45-0.1-0.51-0.06 c0.2-0.15,0.9,0.14,0.02-0.01c-0.72-0.12-1.43-0.27-2.13-0.45c-0.32-0.09-0.63-0.18-0.94-0.28c-0.15-0.05-0.31-0.13-0.46-0.16 c-0.57-0.13,0.69,0.36,0.19,0.09c-0.37-0.2-0.75-0.36-1.11-0.57c-0.13-0.08-0.26-0.17-0.39-0.24c-0.58-0.33,0.05,0.16,0.17,0.16 c-0.26-0.02-0.68-0.64-0.88-0.83c-0.09-0.09-0.4-0.5-0.03-0.01c0.39,0.52-0.03-0.06-0.09-0.17c-0.07-0.14-0.15-0.27-0.23-0.41 c-0.49-0.79,0.1,0.54-0.02-0.02c-0.09-0.41-0.22-0.83-0.32-1.25c0.02,0.07,0.04,0.8,0.05,0.29c0-0.31-0.04-0.62-0.04-0.92 c0-0.44,0.02-0.88,0.06-1.31c0.02-0.19,0.04-0.38,0.05-0.57c0.08-0.89-0.08,0.42,0.01-0.14c0.07-0.45,0.14-0.89,0.21-1.34 c0.19-1.22,0.38-2.45,0.5-3.68c0.22-2.16,0.08-4.47-0.73-6.49c-0.87-2.18-3.05-3.95-5.54-3.14 C214.04,403.52,212.07,406.03,213,408.37L213,408.37z" style="fill: rgb(91, 95, 117);"/></g></g></g><g><g><g id="__id3_sgftfo9cck"><path d="M219.76,429.67c0.17,0.87,0.06,0.17,0.04-0.01c0.04,0.26,0.05,0.53,0.07,0.8 c0.03,0.47,0.03,0.94,0.02,1.4c-0.01,0.47-0.04,0.94-0.08,1.41c-0.02,0.27-0.06,0.54-0.08,0.81c0.04-0.45,0.06-0.4,0,0.02 c-0.36,2.36-0.81,4.69-1.07,7.06c-0.52,4.87,0.74,9.47,4.06,13.13c3.52,3.89,8.53,5.93,13.64,6.53c4.73,0.56,9.57-0.13,14.3-0.52 c9.96-0.81,19.91-1.63,29.87-2.44c8.4-0.69,18.29-0.58,24.76-6.88c7.28-7.09,5.72-18.05,3.6-26.96 c-0.54-2.29-3.28-3.87-5.54-3.14c-2.39,0.77-3.73,3.08-3.14,5.54c0.41,1.73,0.8,3.47,1.09,5.23c0.03,0.19,0.06,0.38,0.09,0.57 c0.02,0.14,0.14,0.95,0.06,0.36c-0.07-0.52,0.06,0.57,0.08,0.74c0.1,0.95,0.16,1.9,0.17,2.85c0.01,0.81-0.01,1.61-0.08,2.42 c-0.01,0.15-0.1,0.94-0.02,0.31c0.07-0.58-0.01,0.02-0.02,0.12c-0.09,0.47-0.18,0.94-0.3,1.41c-0.09,0.34-0.19,0.69-0.3,1.02 c-0.08,0.22-0.17,0.44-0.24,0.67c0.02-0.05,0.35-0.7,0.1-0.26c-0.2,0.36-0.37,0.74-0.58,1.1c-0.14,0.24-0.96,1.32-0.33,0.57 c-0.52,0.62-1.09,1.14-1.67,1.7c-0.36,0.35,0.15-0.11,0.2-0.15c-0.2,0.13-0.39,0.28-0.59,0.41c-0.4,0.26-0.82,0.5-1.24,0.72 c-0.32,0.17-0.65,0.32-0.98,0.47c0.82-0.37-0.14,0.03-0.46,0.14c-0.82,0.28-1.66,0.51-2.5,0.7c-0.86,0.2-1.73,0.33-2.6,0.48 c-0.52,0.1,0.2-0.02,0.26-0.03c-0.19,0.02-0.38,0.05-0.56,0.07c-0.5,0.06-1,0.11-1.5,0.16c-2.08,0.2-4.16,0.35-6.25,0.52 c-9.22,0.75-18.43,1.5-27.65,2.26c-4.43,0.36-8.89,0.88-13.33,1c-1.09,0.03-2.19,0.03-3.28-0.05c-0.19-0.01-1.32-0.12-0.65-0.04 c-0.61-0.08-1.23-0.21-1.82-0.36c-0.51-0.13-1.02-0.28-1.52-0.45c-0.2-0.07-0.41-0.14-0.61-0.22c0.19,0.07,0.67,0.33-0.11-0.07 c-0.9-0.46-1.77-0.96-2.59-1.56c0.57,0.42-0.51-0.46-0.67-0.62c-0.39-0.37-0.74-0.76-1.09-1.17c0.54,0.64-0.31-0.52-0.43-0.73 c-0.1-0.17-0.18-0.36-0.28-0.53c-0.31-0.52,0.12,0.56,0-0.03c-0.11-0.5-0.26-1.03-0.4-1.52c-0.14-0.5,0.01,0.15,0.02,0.23 c-0.02-0.33-0.05-0.65-0.06-0.97c-0.04-1.07,0.06-2.12,0.17-3.17c0.05-0.53-0.02,0.12-0.03,0.19c0.04-0.27,0.08-0.54,0.12-0.81 c0.09-0.54,0.18-1.08,0.27-1.62c0.23-1.34,0.43-2.69,0.6-4.04c0.31-2.44,0.25-4.79-0.24-7.21c-0.47-2.31-3.34-3.85-5.54-3.14 C220.45,424.93,219.26,427.2,219.76,429.67L219.76,429.67z" style="fill: rgb(91, 95, 117);"/></g></g></g><g><g><g id="__id4_sgftfo9cck"><path d="M238.68,456.53c-0.6,6.65-1.16,13.32,0.33,19.91c0.87,3.82,2.55,7.61,5.36,10.4 c3.39,3.37,8.14,5.87,12.93,6.25c3.02,0.24,6.09,0.14,9.11-0.01c3.9-0.2,7.83-0.57,11.66-1.33c3.25-0.64,6.17-1.64,8.75-3.75 c3.06-2.5,5.96-5.04,7.39-8.83c1.55-4.08,1.16-8.73,0.68-12.97c-0.5-4.42-1.1-8.99-2.49-13.24c-0.5-1.54-2.08-2.54-3.69-2.1 c-1.51,0.41-2.6,2.14-2.1,3.69c1.09,3.33,1.66,6.88,2.12,10.35c0.37,2.79,0.81,6.8,0.43,9.77c-0.21,1.63-0.57,2.76-1.34,4 c-0.09,0.14-0.58,0.84-0.46,0.68c0.12-0.15-0.45,0.51-0.56,0.64c-0.61,0.66-1.27,1.27-1.95,1.86c-0.7,0.61-1.42,1.2-2.13,1.79 c-0.2,0.16-0.4,0.32-0.59,0.49c-0.47,0.4,0.45-0.16,0.12-0.1c-0.21,0.04-0.51,0.32-0.7,0.42c-0.24,0.13-0.48,0.24-0.73,0.35 c0.71-0.33-0.11,0.03-0.31,0.1c-0.7,0.25-1.43,0.46-2.15,0.64c-1.59,0.4-3.2,0.68-4.82,0.91c-0.07,0.01-0.58,0.08-0.12,0.02 c-0.21,0.03-0.41,0.05-0.62,0.08c-0.42,0.05-0.83,0.1-1.25,0.14c-0.94,0.1-1.88,0.18-2.83,0.25c-3.12,0.23-6.25,0.34-9.37,0.26 c-3.37-0.09-6.2-1.07-9.11-3.2c-0.66-0.48-1.27-1.02-1.84-1.61c-0.75-0.78-0.78-0.83-1.35-1.74c-0.43-0.68-0.8-1.39-1.13-2.12 c0.15,0.34-0.2-0.51-0.27-0.7c-0.17-0.48-0.33-0.97-0.47-1.47c-1.78-6.18-1.12-13.08-0.51-19.82c0.15-1.62-1.48-3-3-3 C239.94,453.53,238.83,454.91,238.68,456.53L238.68,456.53z" style="fill: rgb(91, 95, 117);"/></g></g></g><g><g><g id="__id5_sgftfo9cck"><path d="M239.08,139.01c-15.2,3.46-29.32,10.61-41.48,20.31c-12.06,9.62-22.11,21.94-29.02,35.73 c-3.91,7.8-6.86,16.08-8.63,24.63c-0.33,1.59,0.46,3.24,2.1,3.69c1.49,0.41,3.36-0.5,3.69-2.1c3-14.54,9.35-28.02,18.44-39.82 c8.88-11.53,20.35-21.24,33.32-28.09c7.34-3.87,15.01-6.72,23.19-8.58c1.58-0.36,2.51-2.18,2.1-3.69 C242.32,139.48,240.67,138.65,239.08,139.01L239.08,139.01z" style="fill: rgb(91, 95, 117);"/></g></g></g><g><g><g id="__id6_sgftfo9cck"><path d="M304.8,141.99c9.93,0.25,19.28,6.36,23.69,15.43c0.71,1.46,2.78,1.85,4.1,1.08 c1.49-0.87,1.79-2.64,1.08-4.1c-5.29-10.88-16.83-18.1-28.87-18.4C300.94,135.89,300.94,141.89,304.8,141.99L304.8,141.99z" style="fill: rgb(91, 95, 117);"/></g></g></g><g><g><g id="__id7_sgftfo9cck"><path d="M228.14,254.06c5.34,4.05,12.3,6.03,18.98,5.6c3.57-0.23,6.9-1.11,10.16-2.53 c1.11-0.49,2.21-1.05,3.4-0.63c1.74,0.6,3.32,1.57,5.1,2.1c3.61,1.08,7.41,1.2,11.11,0.57c1.78-0.3,3.47-0.85,5.13-1.56 c1.47-0.63,3.01-1.83,4.63-2.02c1.25-0.14,2.55,0.54,3.63,1.07c1.46,0.72,2.9,1.45,4.44,1.98c2.74,0.96,5.75,1.37,8.64,1.24 c6.69-0.29,13.23-3.35,16.72-9.25c1.98-3.33-3.21-6.35-5.18-3.03c-2.33,3.93-6.87,6.03-11.38,6.27 c-2.67,0.14-4.64-0.12-7.21-1.02c-2.75-0.96-5.81-3.21-9.24-3.26c-3.46-0.05-6.16,2.28-9.35,3.23c-2.96,0.88-6.13,1.02-9.15,0.31 c-3.27-0.76-6.16-3.13-9.62-2.74c-1.78,0.2-3.3,0.97-4.93,1.64c-1.49,0.61-3.06,1.05-4.65,1.35c-6.32,1.18-13.04-0.58-18.23-4.51 c-1.29-0.98-3.36-0.2-4.1,1.08C226.16,251.49,226.84,253.08,228.14,254.06L228.14,254.06z" style="fill: rgb(91, 95, 117);"/></g></g></g><g><g><g id="__id8_sgftfo9cck"><path d="M238.55,260.1c4.01,6.71,5.89,14.35,7.09,22.01c1.3,8.35,2.02,16.81,2.81,25.21 c1.69,18,2.9,36.05,3.61,54.11c0.4,10.15,0.64,20.3,0.73,30.45c0.03,3.86,6.03,3.87,6,0c-0.16-18.33-0.82-36.65-2-54.94 c-1.15-17.96-2.52-36-4.99-53.84c-1.25-9.05-3.35-18.12-8.08-26.04C241.76,253.76,236.57,256.77,238.55,260.1L238.55,260.1z" style="fill: rgb(91, 95, 117);"/></g></g></g><g><g><g id="__id9_sgftfo9cck"><path d="M298.02,255.36c-2.82,2.67-4.34,6.32-5.18,10.05c-0.9,4.04-1.32,8.22-1.91,12.32 c-1.33,9.33-2.65,18.67-3.89,28.01c-2.45,18.47-4.58,37-5.89,55.59c-0.74,10.52-1.21,21.06-1.33,31.61c-0.04,3.86,5.96,3.86,6,0 c0.21-18.3,1.48-36.57,3.35-54.77c1.85-18.04,4.29-36.01,6.84-53.96c0.69-4.86,1.31-9.73,2.1-14.57 c0.6-3.68,1.41-7.47,4.14-10.05C305.06,256.94,300.82,252.7,298.02,255.36L298.02,255.36z" style="fill: rgb(91, 95, 117);"/></g></g></g><g><g><g id="__id10_sgftfo9cck"><path d="M381.44,237.85c0.18,23.14-13.7,45.58-34.3,56.3c-2.94,1.53-5.71,2.73-8.89,3.67 c-3.23,0.96-6.95,1.63-10.07-0.01c-1.43-0.75-3.26-0.37-4.1,1.08c-0.79,1.35-0.36,3.35,1.08,4.1c6.91,3.63,14.77,0.99,21.43-1.94 c5.87-2.58,11.27-6.11,16.15-10.26c9.77-8.31,17.16-19.4,21.26-31.54c2.32-6.87,3.5-14.16,3.45-21.4 C387.41,233.99,381.41,233.98,381.44,237.85L381.44,237.85z" style="fill: rgb(91, 95, 117);"/></g></g></g><g><g><g id="__id11_sgftfo9cck"><path d="M378.04,251.48c-3.9,7.64-9.4,14.43-16.21,19.67c-7.43,5.72-16.08,9.02-25.52,8.72 c-3.86-0.12-3.86,5.88,0,6c16.04,0.52,30.44-8.49,40.11-20.8c2.6-3.31,4.89-6.8,6.8-10.55c0.74-1.44,0.38-3.25-1.08-4.1 C380.81,249.62,378.78,250.03,378.04,251.48L378.04,251.48z" style="fill: rgb(91, 95, 117);"/></g></g></g><g><g><g id="__id12_sgftfo9cck"><path d="M380.64,207.86c0.42,8.96,0.21,18.27-3.29,26.67c-2.9,6.98-8.22,13.32-15.61,15.66 c-4.19,1.33-8.46,1.34-12.58-0.24c-1.51-0.58-3.29,0.64-3.69,2.1c-0.46,1.69,0.58,3.11,2.1,3.69c8.86,3.4,18.97,0.52,25.95-5.52 c6.97-6.03,10.88-15.09,12.33-24.04c0.98-6.07,1.07-12.19,0.78-18.31c-0.08-1.62-1.32-3-3-3 C382.07,204.86,380.56,206.24,380.64,207.86L380.64,207.86z" style="fill: rgb(91, 95, 117);"/></g></g></g><g><g><g id="__id13_sgftfo9cck"><path d="M374.2,185.02c-0.6,14.48-4.74,31.15-19.21,37.66c-1.48,0.66-1.83,2.81-1.08,4.1 c0.89,1.52,2.62,1.74,4.1,1.08c7.15-3.21,12.78-9.38,16.27-16.31c4.14-8.22,5.53-17.42,5.91-26.53c0.07-1.62-1.43-3-3-3 C375.52,182.02,374.27,183.39,374.2,185.02L374.2,185.02z" style="fill: rgb(91, 95, 117);"/></g></g></g><g><g><g id="__id14_sgftfo9cck"><path d="M357.46,149.97c4.84,13.52,5.35,29.24-1.37,42.21c-1.77,3.41-3.98,6.5-6.68,9.23 c-2.72,2.74,1.52,6.99,4.24,4.24c10.9-10.98,14.82-27.3,13.04-42.37c-0.6-5.1-1.71-10.08-3.44-14.91 c-0.55-1.52-2.04-2.55-3.69-2.1C358.08,146.68,356.91,148.43,357.46,149.97L357.46,149.97z" style="fill: rgb(91, 95, 117);"/></g></g></g><g><g><g id="__id15_sgftfo9cck"><path d="M339.42,132.53c2.09,2.01,2.91,4.77,3.54,7.56c0.78,3.41,1.41,6.87,1.96,10.32 c1.11,6.97,1.47,14.18-0.74,20.98c-0.5,1.54,0.58,3.27,2.1,3.69c1.63,0.45,3.19-0.55,3.69-2.1c2.55-7.85,2.02-16.14,0.74-24.17 c-0.59-3.7-1.24-7.44-2.14-11.08c-0.86-3.49-2.27-6.91-4.91-9.44C340.87,125.61,336.62,129.85,339.42,132.53L339.42,132.53z" style="fill: rgb(91, 95, 117);"/></g></g></g><g><g><g id="__id16_sgftfo9cck"><path d="M215.35,318.96c3.78,0.9,6.07,5.34,7.9,8.7c2.3,4.22,4.01,8.68,5.21,13.33c0.96,3.74,6.75,2.15,5.79-1.6 c-1.39-5.4-3.49-10.65-6.23-15.51c-2.52-4.47-5.74-9.44-11.07-10.71c-1.57-0.38-3.25,0.5-3.69,2.1 C212.83,316.79,213.76,318.58,215.35,318.96L215.35,318.96z" style="fill: rgb(91, 95, 117);"/></g></g></g><g><g><g id="__id17_sgftfo9cck"><path d="M116.36,296.9c7.32-2.01,14.63-4.02,21.95-6.03c2.27-0.62,3.89-3.22,3.14-5.54 c-0.75-2.32-3.1-3.81-5.54-3.14c-7.32,2.01-14.63,4.02-21.95,6.03c-2.27,0.62-3.89,3.22-3.14,5.54 C111.58,296.08,113.93,297.57,116.36,296.9L116.36,296.9z" style="fill: rgb(91, 95, 117);"/></g></g></g><g><g><g id="__id18_sgftfo9cck"><path d="M55.6,249.88c9.83-1,19.72-1.27,29.59-0.79c4.89,0.24,9.77,0.66,14.63,1.27 c0.32,0.04,0.64,0.08,0.96,0.12c0.56,0.07,0.64,0.08,0.24,0.03c0.64,0.09,1.27,0.18,1.91,0.27c1.11,0.16,2.22,0.34,3.33,0.52 c2.53,0.42,5.06,0.89,7.58,1.41c2.3,0.47,4.97-0.67,5.54-3.14c0.51-2.25-0.68-5.03-3.14-5.54c-19.92-4.08-40.39-5.22-60.62-3.16 c-2.33,0.24-4.62,1.9-4.5,4.5C51.2,247.61,53.09,250.14,55.6,249.88L55.6,249.88z" style="fill: rgb(91, 95, 117);"/></g></g></g><g><g><g id="__id19_sgftfo9cck"><path d="M100.88,195.02c0.28-0.04,0.57-0.09,0.85-0.12c-0.4,0.05-0.8,0.11-1.2,0.16c2.85-0.36,5.72-0.36,8.57,0 c-0.4-0.05-0.8-0.11-1.2-0.16c2.09,0.29,4.13,0.76,6.13,1.42c2.24,0.74,5.02-0.86,5.54-3.14c0.57-2.48-0.75-4.74-3.14-5.54 c-5.81-1.93-11.92-2.24-17.95-1.3c-1.04,0.16-2.18,1.2-2.69,2.07c-0.56,0.96-0.8,2.39-0.45,3.47c0.35,1.09,1.03,2.14,2.07,2.69 C98.55,195.17,99.61,195.21,100.88,195.02L100.88,195.02z" style="fill: rgb(91, 95, 117);"/></g></g></g><g><g><g id="__id20_sgftfo9cck"><path d="M73.15,94.5c0.6,0.17,1.17,0.39,1.76,0.59c0.72,0.25-0.89-0.47,0.24,0.11c0.24,0.13,0.49,0.24,0.74,0.37 c1.16,0.6,2.27,1.31,3.33,2.07c0.23,0.16,0.45,0.33,0.67,0.49c0.65,0.45-0.79-0.65,0.25,0.19c0.43,0.35,0.87,0.7,1.29,1.06 c1.02,0.86,2.02,1.75,3.02,2.64c4.53,4.04,9.06,8.09,13.59,12.14c9.06,8.09,18.13,16.18,27.19,24.27 c5.09,4.54,10.18,9.09,15.27,13.63c1.76,1.57,4.66,1.86,6.36,0c1.57-1.71,1.88-4.69,0-6.36c-18.5-16.51-37-33.03-55.5-49.54 c-4.74-4.23-9.59-8.53-15.83-10.33c-2.26-0.65-5,0.79-5.54,3.14C69.46,91.37,70.73,93.81,73.15,94.5L73.15,94.5z" style="fill: rgb(91, 95, 117);"/></g></g></g><g><g><g id="__id21_sgftfo9cck"><path d="M166.88,83.38c-0.66-0.84,0.32,0.42,0.43,0.57c0.3,0.4,0.6,0.8,0.89,1.2c0.59,0.8,1.16,1.62,1.73,2.44 c1.13,1.64,2.22,3.31,3.25,5.01c2.08,3.4,3.96,6.92,5.66,10.52c1,2.14,4.24,2.85,6.16,1.61c2.2-1.42,2.69-3.87,1.61-6.16 c-3.62-7.7-8.15-14.85-13.37-21.57c-0.66-0.84-2.17-1.32-3.18-1.32c-1.1,0-2.42,0.49-3.18,1.32 C165.06,78.99,165.33,81.38,166.88,83.38L166.88,83.38z" style="fill: rgb(91, 95, 117);"/></g></g></g><g><g><g id="__id22_sgftfo9cck"><path d="M225,9.52c3.21,19.9,10.74,38.7,15.86,58.13c1.44,5.48,2.68,11.02,3.59,16.61 c0.38,2.33,3.4,3.83,5.54,3.14c2.53-0.82,3.55-3.04,3.14-5.54c-3.22-19.9-10.75-38.7-15.87-58.12 c-1.44-5.48-2.68-11.02-3.58-16.61c-0.38-2.33-3.4-3.83-5.54-3.14C225.61,4.8,224.59,7.02,225,9.52L225,9.52z" style="fill: rgb(91, 95, 117);"/></g></g></g><g><g><g id="__id23_sgftfo9cck"><path d="M314.68,63.52c-4.91,6.55-9.1,13.61-12.49,21.06c-0.97,2.14-0.68,4.94,1.61,6.16 c1.97,1.04,5.12,0.67,6.16-1.61c3.39-7.45,7.58-14.51,12.49-21.06c1.42-1.89,0.37-5.11-1.61-6.16 C318.48,60.65,316.19,61.5,314.68,63.52L314.68,63.52z" style="fill: rgb(91, 95, 117);"/></g></g></g><g><g><g id="__id24_sgftfo9cck"><path d="M356.38,110.73c16.73-7.8,32.96-16.67,48.56-26.55c4.41-2.79,8.76-5.67,13.07-8.62 c1.94-1.33,3-4.01,1.61-6.16c-1.24-1.93-4.08-3.04-6.16-1.61c-15.22,10.44-31.11,19.91-47.55,28.31 c-4.65,2.37-9.34,4.66-14.07,6.87c-2.14,1-2.85,4.24-1.61,6.16C351.64,111.32,354.09,111.8,356.38,110.73L356.38,110.73z" style="fill: rgb(91, 95, 117);"/></g></g></g><g><g><g id="__id25_sgftfo9cck"><path d="M394,147.95c7.65-2.3,15.09-5.33,22.18-9.01c2.09-1.09,2.89-4.19,1.61-6.16 c-1.38-2.13-3.92-2.78-6.16-1.61c-1.63,0.85-3.27,1.66-4.94,2.43c-0.83,0.39-1.67,0.76-2.51,1.13c-0.16,0.07-1.68,0.71-0.73,0.32 c-0.42,0.18-0.85,0.35-1.27,0.52c-3.47,1.4-6.99,2.63-10.57,3.7c-2.25,0.68-3.9,3.19-3.14,5.54 C389.2,147.08,391.58,148.67,394,147.95L394,147.95z" style="fill: rgb(91, 95, 117);"/></g></g></g><g><g><g id="__id26_sgftfo9cck"><path d="M407.39,209.54c8.95,0.97,16.54,1.96,25.27,3.32c8.63,1.34,17.23,2.89,25.8,4.62 c2.3,0.47,4.97-0.66,5.54-3.14c0.51-2.24-0.68-5.04-3.14-5.54c-17.68-3.58-35.53-6.33-53.47-8.26c-2.35-0.25-4.6,2.25-4.5,4.5 C403.01,207.7,404.88,209.27,407.39,209.54L407.39,209.54z" style="fill: rgb(91, 95, 117);"/></g></g></g><g><g><g id="__id27_sgftfo9cck"><path d="M405.4,265.65c5.7,0.91,11.4,1.82,17.1,2.73c1.23,0.2,2.35,0.2,3.47-0.45c0.93-0.55,1.82-1.62,2.07-2.69 c0.49-2.16-0.66-5.14-3.14-5.54c-5.7-0.91-11.4-1.82-17.1-2.73c-1.23-0.2-2.35-0.2-3.47,0.45c-0.93,0.55-1.82,1.62-2.07,2.69 C401.76,262.27,402.91,265.25,405.4,265.65L405.4,265.65z" style="fill: rgb(91, 95, 117);"/></g></g></g><g><g><g id="__id28_sgftfo9cck"><path d="M387.16,298.07c17.74,12.48,34.41,25.05,51.03,38.51c4.71,3.81,9.39,7.68,14.02,11.58 c1.8,1.51,4.62,1.9,6.36,0c1.53-1.67,1.92-4.75,0-6.36c-16.83-14.16-34.15-27.76-51.9-40.75c-4.96-3.63-9.95-7.21-14.97-10.74 c-1.93-1.36-5.09-0.41-6.16,1.61C384.33,294.22,385.1,296.62,387.16,298.07L387.16,298.07z" style="fill: rgb(91, 95, 117);"/></g></g></g><g><g><g id="__id29_sgftfo9cck"><path d="M361.28,329.59c1.42,1.05,2.83,2.12,4.24,3.2c0.09,0.07,0.68,0.52,0.18,0.14 c-0.49-0.38,0.09,0.07,0.18,0.14c0.34,0.26,0.68,0.53,1.01,0.79c0.72,0.56,1.43,1.13,2.15,1.7c2.77,2.21,5.49,4.47,8.18,6.77 c1.79,1.53,4.63,1.89,6.36,0c1.54-1.68,1.91-4.73,0-6.36c-5.75-4.92-11.68-9.63-17.76-14.14c-0.88-0.65-2.46-0.73-3.47-0.45 c-1.04,0.29-2.17,1.09-2.69,2.07c-0.55,1.04-0.83,2.31-0.45,3.47C359.59,328.08,360.28,328.85,361.28,329.59L361.28,329.59z" style="fill: rgb(91, 95, 117);"/></g></g></g><g><g><g id="__id30_sgftfo9cck"><path d="M158.66,316.18c-18.97,13.14-34.95,29.89-52.81,44.41c-1.24,1-2.48,1.99-3.74,2.98 c-0.09,0.07-0.67,0.52-0.12,0.09c-0.34,0.26-0.69,0.53-1.03,0.79c-0.63,0.48-1.27,0.96-1.91,1.43c-2.62,1.94-5.29,3.81-8.01,5.59 c-1.97,1.29-2.98,4.04-1.61,6.16c1.27,1.96,4.05,2.99,6.16,1.61c19.31-12.65,35.39-29.33,53.02-44.08 c5.13-4.29,9.07-7.38,14.59-11.21c1.93-1.34,3-4.01,1.61-6.16C163.58,315.88,160.73,314.75,158.66,316.18L158.66,316.18z" style="fill: rgb(91, 95, 117);"/></g></g></g></svg>