<svg xmlns="http://www.w3.org/2000/svg" xmlns:xlink="http://www.w3.org/1999/xlink" preserveAspectRatio="xMidYMid meet" version="1.0" viewBox="-0.0 -0.1 86.0 126.1" zoomAndPan="magnify" style="fill: rgb(91, 95, 117);" original_string_length="14163"><g id="__id31_sgftfo9cck"><path d="M44.327,36.285c0.024-0.005,2.382-0.392,4.007,0.762c0.176,0.125,0.378,0.185,0.578,0.185c0.313,0,0.621-0.146,0.816-0.421 c0.319-0.45,0.214-1.074-0.236-1.395c-2.316-1.646-5.384-1.125-5.512-1.101c-0.543,0.097-0.903,0.613-0.809,1.156 C43.266,36.014,43.786,36.383,44.327,36.285z" style="fill: inherit;"/><path d="M29.508,34.316c-0.128-0.024-3.195-0.545-5.511,1.101c-0.45,0.32-0.556,0.944-0.236,1.395 c0.195,0.274,0.504,0.421,0.816,0.421c0.2,0,0.402-0.06,0.578-0.185c1.616-1.148,3.96-0.771,4.005-0.762 c0.54,0.089,1.061-0.268,1.157-0.811S30.051,34.412,29.508,34.316z" style="fill: inherit;"/><path d="M85.941,125.292c0.02-0.064,0.033-0.128,0.04-0.196C85.984,125.063,86,125.034,86,125c0-0.035-0.016-0.065-0.02-0.1 c-0.003-0.035,0.007-0.068,0-0.102l-5.5-26.632c0.429-0.595,0.669-1.302,0.669-2.051c0-0.947-0.371-1.837-1.044-2.503 c-0.708-0.702-1.644-1.039-2.574-1.022c0-0.018,0.005-0.036,0.005-0.054c0-0.947-0.371-1.837-1.044-2.504 c-0.709-0.702-1.644-1.037-2.575-1.019c0-0.019,0.005-0.036,0.005-0.055c0-0.947-0.371-1.837-1.044-2.505 c-0.708-0.701-1.644-1.036-2.574-1.019c0-0.019,0.006-0.037,0.006-0.057c0-0.947-0.371-1.836-1.044-2.502 c-1.383-1.371-3.631-1.371-5.014,0l-0.797,0.789l-1.861-1.844c1.059-1.819,1.675-3.921,1.675-6.168 c0-5.466-3.593-10.107-8.557-11.747c0.459-0.601,0.872-1.198,1.221-1.784c0.549-0.922,1.063-2.059,1.538-3.365 c2.946-0.537,5.388-2.42,6.312-4.955c0.733-2.011,0.681-4.109,0.014-5.852c1.596-2.252,2.731-4.839,3.284-7.525 c0.399-1.942,0.506-3.908,0.318-5.869c0.339,0.134,0.688,0.24,1.042,0.318c0.972,0.214,2.003,0.215,2.982,0.001 c0.355-0.078,0.64-0.342,0.745-0.689c0.104-0.348,0.012-0.726-0.241-0.985c-2.572-2.643-4.662-5.54-6.211-8.61 c-1.256-2.492-1.935-4.638-2.533-6.531c-0.906-2.866-1.688-5.343-4.047-7.652c-1.649-1.615-3.722-2.81-6.177-3.563 c0.456-0.46,0.863-0.967,1.211-1.508c1.032-1.607,1.349-3.202,1.433-4.257c0.028-0.359-0.139-0.705-0.437-0.907 c-0.297-0.202-0.682-0.228-1.005-0.068c-2.838,1.406-5.721,2.224-8.569,2.43c-1.655,0.117-2.903,0.012-4.112-0.09 c-1.531-0.131-2.978-0.254-4.936,0.104c-2.782,0.508-5.424,1.781-7.854,3.784c-2.627,0.056-5.186,0.497-7.611,1.313 C12.042,10.683,7.238,17.98,5.178,22.059c-0.176,0.35-0.133,0.769,0.11,1.074s0.642,0.439,1.022,0.348l2.648-0.655 c-1.062,1.803-1.92,3.713-2.563,5.704c-1.094,3.387-1.54,6.916-1.324,10.49c0.022,0.382,0.262,0.717,0.615,0.863 c0.352,0.146,0.759,0.078,1.046-0.175c0.476-0.421,0.932-0.873,1.356-1.344c0.252-0.279,0.494-0.566,0.728-0.861 c0.007,0.927,0.036,1.854,0.087,2.776c0.135,2.479,0.437,4.971,0.889,7.417c-0.764,1.79-0.859,3.996-0.09,6.106 c1.11,3.041,3.651,5.028,6.363,5.096c0.461,1.247,0.958,2.334,1.487,3.224c1.987,3.34,6.703,8.137,12.69,10.36v2.185 c-0.297,0.028-0.57,0.181-0.737,0.43l-3.687,5.507c-9.973,5.02-22.445,16.771-25.813,44.276c-0.035,0.284,0.054,0.569,0.243,0.784 C0.441,125.877,0.714,126,1,126h84c0,0,0.001,0,0.001,0c0.067,0,0.133-0.007,0.201-0.02c0.033-0.007,0.058-0.028,0.09-0.038 c0.066-0.021,0.126-0.046,0.186-0.079c0.055-0.031,0.105-0.063,0.153-0.103c0.05-0.042,0.093-0.087,0.135-0.138 c0.04-0.049,0.074-0.099,0.104-0.155C85.899,125.411,85.922,125.354,85.941,125.292z M42.696,85.086 c2.181,1.839,4.999,2.955,8.079,2.955c2.233,0,4.327-0.591,6.143-1.613l1.878,1.86c-0.647,0.662-1.007,1.531-1.007,2.459 c0,0.243,0.026,0.482,0.074,0.715c-0.064,0.042-0.129,0.083-0.188,0.129c-0.835,0.651-1.363,1.587-1.487,2.634 c-0.124,1.045,0.17,2.076,0.827,2.902l2.655,3.335c0.78,0.982,1.942,1.495,3.115,1.495c0.095,0,0.19-0.016,0.285-0.023 c0.933,1.398,2.052,2.527,3.34,3.37L67.521,124H39.003V96.063L42.696,85.086z M62.446,96.829c0.637,0.63,1.458,0.956,2.292,1.006 c0.064,0.64-0.2,1.286-0.736,1.705c-0.855,0.668-2.096,0.52-2.767-0.323l-2.655-3.335c-0.322-0.405-0.466-0.91-0.405-1.422 c0.056-0.477,0.291-0.903,0.653-1.218c0.003,0.002,0.004,0.005,0.007,0.008c0.691,0.686,1.599,1.027,2.507,1.027 c0.023,0,0.045-0.006,0.068-0.006c0,0.019-0.005,0.036-0.005,0.055C61.403,95.274,61.774,96.162,62.446,96.829z M68.478,106.393 c1.601,0.628,3.139,0.822,4.425,0.822c0.93,0,1.728-0.101,2.322-0.211c0.543-0.102,0.901-0.623,0.801-1.166 c-0.102-0.543-0.626-0.906-1.166-0.801c-1.141,0.213-4.102,0.524-6.979-1.146c-1.089-0.633-2.044-1.524-2.861-2.637 c0.07-0.048,0.144-0.085,0.211-0.138c0.686-0.536,1.145-1.258,1.365-2.044c0.112,0.153,0.228,0.304,0.365,0.44 c0.691,0.685,1.599,1.027,2.507,1.027c0.349,0,0.695-0.067,1.031-0.168c0.134,0.688,0.468,1.321,0.977,1.826 c0.691,0.684,1.599,1.025,2.506,1.025c0.908,0,1.816-0.342,2.508-1.026l2.306-2.284L83.772,124H69.524L68.478,106.393z M76.499,95.032c0.303-0.3,0.7-0.45,1.099-0.45c0.397,0,0.796,0.15,1.099,0.451c0.292,0.288,0.452,0.672,0.452,1.082 s-0.16,0.794-0.452,1.082v0.001l-3.611,3.578c-0.606,0.599-1.592,0.602-2.198-0.001c-0.292-0.288-0.452-0.672-0.452-1.082 c0-0.409,0.16-0.793,0.452-1.082l0.396-0.393l3.209-3.178c0.002-0.002,0.003-0.004,0.005-0.006L76.499,95.032z M72.886,91.453 c0.303-0.3,0.7-0.45,1.099-0.45c0.397,0,0.796,0.15,1.099,0.451c0.292,0.288,0.452,0.672,0.452,1.082s-0.16,0.794-0.452,1.082 c0,0,0,0,0,0.001l-1.208,1.196l-3.308,3.276c-0.606,0.602-1.593,0.601-2.197,0c-0.292-0.288-0.452-0.672-0.452-1.082 s0.16-0.794,0.452-1.083l4.219-4.18l0.288-0.286c0,0,0,0,0,0L72.886,91.453z M69.272,87.875c0.304-0.3,0.702-0.45,1.101-0.45 c0.397,0,0.795,0.149,1.098,0.449c0.292,0.289,0.452,0.674,0.452,1.084c0,0.409-0.161,0.793-0.452,1.081c0,0,0,0,0,0.001 l-5.419,5.368c-0.605,0.6-1.592,0.6-2.197,0c-0.291-0.288-0.451-0.673-0.451-1.082c0-0.408,0.159-0.79,0.446-1.078l5.417-5.366 c0.002-0.002,0.003-0.004,0.005-0.006L69.272,87.875z M66.759,83.846c0.397,0,0.796,0.15,1.099,0.451 c0.291,0.288,0.452,0.672,0.452,1.081c0,0.408-0.159,0.79-0.447,1.078l-5.417,5.366c-0.002,0.002-0.003,0.004-0.005,0.006 l-0.002,0.002c-0.604,0.599-1.591,0.602-2.197-0.001c-0.292-0.288-0.452-0.672-0.452-1.082s0.16-0.794,0.452-1.083l0.679-0.673 c0.001-0.001,0.003-0.002,0.004-0.003c0.001-0.001,0.001-0.003,0.003-0.004l4.733-4.688C65.964,83.996,66.361,83.846,66.759,83.846 z M62.035,85.072l-1.821,1.803l-1.603-1.587c0.669-0.536,1.284-1.136,1.829-1.796L62.035,85.072z M61.27,75.653 c0,5.728-4.708,10.388-10.495,10.388S40.28,81.381,40.28,75.653s4.708-10.388,10.495-10.388S61.27,69.926,61.27,75.653z M61.905,53.117c-0.569,1.562-1.955,2.794-3.707,3.4c0.822-2.847,1.477-6.273,1.907-10.061 C62.07,47.566,62.889,50.419,61.905,53.117z M9.004,33.461c-0.537,1.105-1.2,2.137-1.973,3.072C7.1,34.02,7.525,31.543,8.3,29.145 c0.844-2.611,2.086-5.073,3.693-7.317c0.244-0.34,0.25-0.797,0.015-1.144s-0.661-0.51-1.067-0.409l-2.887,0.715 c2.32-3.858,6.606-9.076,13.663-11.449c2.337-0.786,4.811-1.194,7.353-1.214c0.235-0.002,0.462-0.087,0.642-0.239 c2.235-1.907,4.656-3.109,7.194-3.573c1.693-0.31,2.951-0.202,4.406-0.077c1.228,0.104,2.618,0.224,4.427,0.091 c2.497-0.181,5.011-0.787,7.495-1.808c-0.169,0.49-0.408,1.012-0.744,1.535c-0.722,1.123-1.62,1.83-2.247,2.226 c-0.347,0.219-0.524,0.626-0.45,1.028c0.075,0.403,0.388,0.719,0.79,0.799c2.952,0.583,5.36,1.77,7.156,3.529 c2.001,1.96,2.681,4.106,3.54,6.825c0.621,1.966,1.325,4.193,2.654,6.829c1.322,2.622,3.013,5.121,5.041,7.452 c-0.034-0.007-0.067-0.014-0.102-0.021c-0.777-0.171-1.512-0.535-2.124-1.053c-0.327-0.274-0.791-0.313-1.156-0.097 c-0.366,0.218-0.555,0.644-0.469,1.061c0.489,2.392,0.489,4.812,0,7.19c-0.435,2.115-1.287,4.154-2.452,5.993 c-0.602-0.718-1.351-1.291-2.234-1.646c-0.014-0.005-0.028-0.011-0.042-0.017l1.322-6.971c0.094-0.495-0.195-0.983-0.676-1.139 c-0.48-0.152-1,0.072-1.213,0.529c-0.479,1.026-1.185,1.957-2.042,2.692c-0.115,0.099-0.232,0.194-0.353,0.286 c0.623-1.961,1.032-4.417,0.722-7.229c-0.41-3.714-1.927-6.521-3.126-8.221c-0.252-0.357-0.706-0.508-1.121-0.377 c-0.415,0.133-0.697,0.52-0.696,0.955c0.004,1.68-0.274,3.324-0.826,4.888c-0.041,0.118-0.085,0.236-0.13,0.354 c-0.438-1.88-1.056-3.717-1.846-5.488c-1.242-2.788-2.892-5.372-4.901-7.68c-0.256-0.295-0.661-0.414-1.035-0.304 s-0.65,0.428-0.708,0.813c-0.25,1.688-1.251,5.979-5.142,9.352c-2.904,2.518-6.11,3.385-8.245,3.673 c0.545-1.313,0.872-2.713,0.957-4.122c0.104-1.718-0.139-3.418-0.721-5.054c-0.136-0.379-0.485-0.641-0.887-0.662 c-0.401-0.031-0.779,0.198-0.955,0.561c-1.233,2.533-2.691,4.893-4.334,7.014c-0.777,1.003-1.376,1.67-1.856,2.206 c-0.84,0.937-1.446,1.613-2.098,3.057c-0.936,2.076-1.288,4.203-1.389,5.799c-0.25-0.271-0.492-0.566-0.695-0.876 c-0.572-0.872-0.882-1.98-0.896-3.203c-0.005-0.459-0.321-0.855-0.768-0.962c-0.443-0.108-0.907,0.104-1.119,0.511 c-0.653,1.254-1.182,2.575-1.569,3.928c-0.522,1.824-0.795,3.71-0.812,5.616c-0.064,0.022-0.127,0.047-0.188,0.071 c-0.601,0.241-1.142,0.583-1.616,1.002c-0.256-1.727-0.439-3.468-0.534-5.203c-0.113-2.064-0.113-4.156,0-6.217 c0.026-0.476-0.286-0.903-0.747-1.022C9.69,32.813,9.213,33.033,9.004,33.461z M11.583,53.117c-0.984-2.698-0.165-5.551,1.8-6.661 c0.444,3.912,1.13,7.437,1.99,10.338C13.77,56.421,12.285,55.04,11.583,53.117z M19.273,61.099 c-1.834-3.081-3.338-9.078-4.029-16.052c0-0.003,0.001-0.006,0.001-0.009c-0.056-1.972,0.188-3.924,0.727-5.802 c0.069-0.239,0.143-0.478,0.221-0.714c0.154,0.346,0.333,0.676,0.537,0.986c0.776,1.184,2.619,2.925,3.31,2.979 c0.344,0.022,0.685-0.127,0.889-0.408c0.162-0.224,0.224-0.5,0.177-0.766c-0.021-0.224-0.307-3.651,1.205-7.004 c0.522-1.161,0.963-1.652,1.763-2.544c0.502-0.56,1.126-1.256,1.948-2.316c1.191-1.539,2.291-3.196,3.282-4.949 c0.06,0.578,0.072,1.16,0.037,1.745c-0.103,1.7-0.623,3.384-1.505,4.867c-0.186,0.312-0.188,0.699-0.005,1.014 c0.182,0.313,0.535,0.516,0.883,0.497c1.925-0.036,6.872-0.526,11.222-4.296c3.216-2.787,4.685-6.132,5.352-8.474 c1.308,1.734,2.413,3.609,3.298,5.595c1.124,2.522,1.875,5.187,2.231,7.919c0.054,0.418,0.364,0.757,0.776,0.848 c0.408,0.089,0.834-0.087,1.061-0.442c0.664-1.051,1.209-2.174,1.62-3.338c0.268-0.76,0.479-1.535,0.633-2.323 c0.575,1.287,1.064,2.841,1.262,4.631c0.417,3.775-0.632,6.831-1.585,8.729c-0.183,0.364-0.127,0.802,0.141,1.107 c0.269,0.308,0.697,0.42,1.079,0.287c1.169-0.403,2.238-1.006,3.179-1.791l-0.722,3.804c-0.004,0.021,0.003,0.04,0.001,0.061 c-0.001,0.01-0.008,0.018-0.008,0.028c-0.481,4.91-1.367,9.336-2.487,12.612c-0.002,0.007-0.005,0.013-0.007,0.019 c-0.476,1.391-0.994,2.578-1.543,3.499c-0.445,0.749-1.008,1.524-1.662,2.307c-0.582-0.083-1.173-0.14-1.778-0.14 c-5.424,0-10.039,3.45-11.763,8.249c-0.763,0.113-1.524,0.186-2.269,0.186C28.611,71.7,21.712,65.197,19.273,61.099z M36.744,73.7 c0.568,0,1.143-0.035,1.721-0.093c-0.113,0.667-0.185,1.348-0.185,2.046c0,2.977,1.066,5.711,2.837,7.849l-1.342,3.99l-2.14-4.665 c-0.01-0.022-0.03-0.036-0.042-0.057c-0.031-0.058-0.058-0.118-0.102-0.17l-5.246-6.236v-3.263 C33.692,73.477,35.195,73.7,36.744,73.7z M30.429,77.315l5.069,6.025l-2.709,4.472l-5.049-6.48L30.429,77.315z M26.227,82.642 l5.877,7.544c0.19,0.244,0.481,0.386,0.789,0.386c0.02,0,0.039-0.001,0.059-0.002c0.328-0.019,0.626-0.198,0.797-0.479l2.854-4.712 l2.241,4.883l-1.789,5.319c-0.034,0.104-0.052,0.211-0.052,0.319V124H17.135l0.174-4.098c0,0,0,0,0,0l0.641-15.049 c0.023-0.552-0.404-1.019-0.956-1.042c-0.537-0.038-1.019,0.404-1.042,0.956l-0.612,14.389c-5.17,1.793-10.462,0.62-12.437,0.05 C7.011,97.199,17.523,87.191,26.227,82.642z M2.558,121.191c1.391,0.392,3.859,0.941,6.784,0.941c1.842,0,3.863-0.225,5.906-0.837 L15.133,124H2.136C2.265,123.041,2.408,122.109,2.558,121.191z" style="fill: inherit;"/><path d="M45.86,42.769c-1.007,0-1.823,0.809-1.823,1.806c0,0.997,0.816,1.806,1.823,1.806c1.007,0,1.823-0.809,1.823-1.806 C47.683,43.577,46.867,42.769,45.86,42.769z" style="fill: inherit;"/><path d="M27.629,42.769c-1.007,0-1.823,0.809-1.823,1.806c0,0.997,0.816,1.806,1.823,1.806s1.823-0.809,1.823-1.806 C29.452,43.577,28.635,42.769,27.629,42.769z" style="fill: inherit;"/><path d="M36.886,50.573c3.069,0,5.132-1.97,5.219-2.054c0.395-0.383,0.403-1.012,0.021-1.408c-0.383-0.398-1.016-0.407-1.412-0.029 c-0.016,0.016-1.59,1.491-3.881,1.491c-0.006,0-0.013,0-0.019,0c-2.225,0-3.794-1.458-3.828-1.49 c-0.397-0.384-1.028-0.372-1.411,0.022c-0.386,0.396-0.376,1.029,0.02,1.414c0.087,0.084,2.148,2.054,5.266,2.054 C36.871,50.573,36.88,50.573,36.886,50.573z" style="fill: inherit;"/><path d="M41.647,107.468c0.522,0.35,0.955,0.77,1.285,1.246c0.723,1.046,0.701,1.996,0.675,3.2 c-0.028,1.252-0.06,2.671,0.824,4.261c0.94,1.691,2.429,2.694,3.417,3.361c1.032,0.694,2.16,1.242,3.352,1.629 c0.101,0.032,0.204,0.049,0.309,0.049s0.208-0.017,0.309-0.049c1.192-0.387,2.32-0.935,3.352-1.63 c0.985-0.663,2.475-1.666,3.417-3.36c0.885-1.59,0.853-3.009,0.825-4.261c-0.027-1.204-0.048-2.154,0.676-3.201 c0.328-0.476,0.76-0.895,1.284-1.245c0.422-0.282,0.564-0.837,0.333-1.288l-1.551-3.018c-0.214-0.416-0.69-0.627-1.141-0.511 c-0.955,0.249-2.45,0.449-4.146,0.001c-0.999-0.265-1.926-0.716-2.756-1.341c-0.355-0.268-0.847-0.269-1.204,0.001 c-0.827,0.624-1.754,1.075-2.755,1.34c-1.693,0.448-3.188,0.249-4.145-0.001c-0.457-0.116-0.928,0.096-1.142,0.511l-1.551,3.018 C41.083,106.632,41.225,107.186,41.647,107.468z M44.293,104.759c1.151,0.206,2.678,0.275,4.37-0.173 c1.016-0.269,1.97-0.69,2.846-1.257c0.878,0.566,1.832,0.988,2.846,1.257c1.69,0.448,3.22,0.377,4.371,0.173l0.817,1.592 c-0.424,0.368-0.793,0.778-1.102,1.226c-1.093,1.579-1.06,3.068-1.03,4.382c0.025,1.143,0.048,2.129-0.573,3.244 c-0.709,1.275-1.909,2.084-2.786,2.675c-0.788,0.53-1.642,0.96-2.543,1.281c-0.901-0.321-1.756-0.752-2.546-1.284 c-0.876-0.59-2.075-1.398-2.783-2.672c-0.62-1.115-0.599-2.102-0.573-3.244c0.029-1.313,0.063-2.803-1.029-4.381 c-0.31-0.448-0.679-0.858-1.102-1.227L44.293,104.759z" style="fill: inherit;"/><path d="M51.022,68.339c-0.083-0.003-0.164-0.012-0.247-0.012c-4.073,0-7.387,3.287-7.387,7.327c0,2.305,1.081,4.362,2.764,5.706 c0.01,0.01,0.023,0.015,0.033,0.025c1.262,0.996,2.855,1.596,4.589,1.596c4.073,0,7.387-3.286,7.387-7.326 c0-2.147-0.941-4.075-2.429-5.416c-0.024-0.024-0.049-0.046-0.075-0.068c-1.234-1.083-2.833-1.76-4.589-1.829 C51.053,68.341,51.038,68.338,51.022,68.339z M53.837,71.28l-3.473,9.659c-0.835-0.064-1.613-0.31-2.298-0.708l3.67-9.808 C52.506,70.56,53.218,70.855,53.837,71.28z M45.388,75.653c0-2.532,1.798-4.647,4.196-5.186l-3.122,8.344 C45.796,77.925,45.388,76.84,45.388,75.653z M52.596,80.645l2.778-7.726c0.49,0.802,0.788,1.731,0.788,2.734 C56.162,77.955,54.669,79.902,52.596,80.645z" style="fill: inherit;"/></g></svg>