<svg xmlns="http://www.w3.org/2000/svg" xmlns:xlink="http://www.w3.org/1999/xlink" preserveAspectRatio="xMidYMid meet" version="1.0" viewBox="94.8 17.0 350.5 476.1" zoomAndPan="magnify" style="fill: rgb(0, 0, 0);" original_string_length="31985"><g><g><g id="__id32_sgftfo9cck"><path d="M241,135.94c-12.14-23.59-30.18-43.87-51.89-59.07c-5.31-3.72-10.86-7.04-16.57-10.11 c-2.86-1.54-5.73-3.08-8.44-4.88c-0.41-0.27-0.82-0.56-1.23-0.84c-0.01,0-0.99-0.73-0.43-0.3c0.28,0.21-0.96-0.8-1.24-1.06 c-0.55-0.49-1.09-1.01-1.6-1.54c-0.26-0.27-0.51-0.55-0.76-0.82c-1.41-1.52,0.37,0.62-0.3-0.36c-0.39-0.57-0.76-1.15-1.1-1.75 c-0.16-0.29-0.91-1.83-0.68-1.28c0.34,0.81-0.17-0.52-0.23-0.71c-0.11-0.33-0.21-0.65-0.29-0.98c-0.09-0.32-0.12-0.68-0.23-0.99 c-0.36-0.99,0.01,1.04-0.03,0c-0.03-0.67-0.08-1.32-0.06-1.99c0.01-0.26,0.25-1.58,0.03-0.64c-0.2,0.9,0.08-0.18,0.11-0.29 c0.18-0.55,0.79-1.66,0.17-0.67c0.18-0.28,0.32-0.59,0.49-0.87c0.31-0.51,1.11-1.04,0.11-0.22c0.45-0.37,0.86-0.84,1.28-1.24 c-0.92,0.86-0.15,0.16,0.43-0.18c0.58-0.34,1.58-0.64,0.37-0.26c0.78-0.25,1.53-0.52,2.33-0.7c0.65-0.15,1.79-0.22,0.46-0.14 c0.74-0.05,1.46-0.12,2.2-0.12c0.64-0.01,1.27,0.01,1.91,0.05c0.32,0.02,0.64,0.06,0.95,0.08c-0.66-0.03-0.93-0.17-0.11-0.01 c7.11,1.34,12.12,4.6,19.13,7.41c7.22,2.9,14.74,3.66,22.42,2.54c7.1-1.04,13.53-4.2,19.16-8.56c2.48-1.91,4.82-3.99,7.22-5.99 c0.51-0.43,1.03-0.85,1.56-1.26c0.9-0.72-0.9,0.6,0.06-0.03c0.27-0.18,0.53-0.39,0.8-0.57c1.14-0.79,2.33-1.52,3.57-2.14 c0.21-0.11,1.44-0.57,0.54-0.26c-0.85,0.29,0.16-0.03,0.28-0.06c0.61-0.17,1.21-0.34,1.82-0.49c1.37-0.33-0.89-0.06,0.55-0.05 c0.75,0.01,1.49,0.05,2.25,0.08c-1.26-0.05-0.68-0.1,0.17,0.11c0.53,0.13,1.06,0.29,1.58,0.46c0.35,0.12,0.69,0.26,1.03,0.38 c-0.08-0.03-1.21-0.63-0.52-0.2c0.55,0.34,1.18,0.58,1.75,0.9c4.54,2.53,8.44,6.04,12.76,8.9c5.1,3.38,11.14,5.88,17.37,5.55 c3.83-0.2,7.5-1.16,11.06-2.56c1.97-0.78,3.91-1.64,5.86-2.45c0.8-0.33,0.22-0.09,0.06-0.02c0.37-0.15,0.74-0.3,1.11-0.45 c0.89-0.35,1.79-0.69,2.71-0.98c1.17-0.37,2.36-0.61,3.57-0.84c0.87-0.17-0.38,0.07-0.46,0.07c0.41,0,0.83-0.07,1.23-0.09 c0.71-0.03,1.42-0.01,2.13,0.02c0.3,0.01,0.6,0.05,0.9,0.07c-0.22-0.02-1.18-0.37-0.53-0.04c0.51,0.26,1.38,0.41,1.95,0.53 c-1.13-0.23-0.52-0.18,0.24,0.19c0.13,0.06,1,0.56,0.15,0.04c-0.8-0.5,0.11,0.13,0.29,0.31c0.2,0.2,0.38,0.41,0.57,0.62 c-1.06-1.24-0.32-0.43-0.2-0.09c0.45,1.26,0-0.38,0.33,0.93c0.41,1.67,0.77,3.38,1.34,5c1.35,3.87,3.6,7.01,7,9.33 c5.13,3.51,11.9,3.68,17.88,3.46c1.33-0.05,2.65-0.14,3.98-0.16c0.58-0.01,1.15,0.02,1.72,0.03c0.16,0,1.18,0.08,0.18-0.01 c-1.02-0.09,0.28,0.06,0.48,0.1c0.69,0.16,1.38,0.31,2.05,0.52c0.62,0.19,1.64,0.66,0.46,0.09c0.53,0.25,1.06,0.5,1.57,0.8 c0.25,0.14,0.49,0.3,0.73,0.45c0.83,0.51,0.64,0.64,0.02-0.01c0.36,0.38,0.73,0.75,1.1,1.12c-1.4-1.42,0.1,0.05-0.1,0.14 c-0.12,0.06-0.61-1.81-0.29-0.43c0,0-0.12-1.63-0.14-0.79c-0.02,0.85,0.12-0.77,0.16-0.74c0.06,0.05-0.31,1.11-0.29,1.04 c0.64-1.1,1.29-2.21,1.93-3.31c-7.36,6.43-14.54,13.06-21.53,19.9c-6.65,6.51-13.36,13.11-19.25,20.33 c-6.14,7.52-11.2,15.58-14.28,24.85c-2.84,8.54-3.9,17.81-3.56,26.79c0.71,18.97,7.37,36.89,16.25,53.46 c9.07,16.93,20.04,32.87,30.39,49.03c22.04,34.4,44.07,68.8,66.11,103.21c5.1,7.96,10.38,15.85,14.98,24.12 c1.06,1.9,2.07,3.82,3.03,5.77c0.48,0.97,0.94,1.95,1.39,2.94c0.22,0.49,0.45,0.99,0.66,1.48c-0.36-0.84,0.24,0.58,0.34,0.83 c1.59,4,2.9,8.12,3.73,12.35c0.19,0.96,0.36,1.93,0.49,2.9c-0.18-1.28-0.01-0.03,0.01,0.2c0.04,0.49,0.1,0.98,0.14,1.47 c0.17,2.2,0.22,4.41,0.12,6.61c-0.04,0.97-0.13,1.94-0.22,2.92c-0.02,0.24-0.22,1.46-0.01,0.17c-0.08,0.48-0.15,0.96-0.24,1.43 c-0.37,2.01-0.89,4-1.55,5.93c-0.16,0.45-0.32,0.9-0.49,1.35c-0.42,1.15,0.43-0.91-0.07,0.2c-0.4,0.87-0.82,1.73-1.29,2.57 c-0.52,0.95-1.09,1.87-1.7,2.77c-0.27,0.4-0.55,0.8-0.84,1.18c0.62-0.82-0.15,0.15-0.41,0.46c-1.25,1.45-2.61,2.8-4.06,4.06 c-0.36,0.31-0.73,0.62-1.1,0.92c-0.94,0.78,0.79-0.57-0.19,0.15c-0.87,0.65-1.76,1.27-2.67,1.86 c-6.8,4.45-14.93,7.76-22.03,10.75c-8.22,3.47-17.43,7.24-26.19,10.41c-8.95,3.24-18.05,6.1-27.34,8.21 c-2.2,0.5-4.4,0.95-6.62,1.36c-1.1,0.2-2.21,0.39-3.32,0.57c-0.55,0.09-1.11,0.17-1.66,0.26c-0.27,0.04-1.86,0.26-0.92,0.14 c-4.72,0.61-9.47,0.96-14.23,1.02c-9.63,0.13-17.19-0.93-26.39-2.89c-9.19-1.96-18.27-4.46-27.49-6.29 c-9.79-1.94-19.62-2.96-29.6-2.65c-5.06,0.16-10.12,0.49-15.18,0.54c-2.38,0.03-4.75-0.01-7.13-0.15 c-1.12-0.07-2.26-0.14-3.37-0.29c1.47,0.2-1.47-0.34-1.83-0.43c-1.84-0.44-3.65-1.01-5.42-1.66c-0.9-0.33-1.78-0.68-2.67-1.04 c-1.14-0.46,0.93,0.41-0.2-0.08c-0.55-0.24-1.1-0.48-1.65-0.72c-4.1-1.82-8.16-3.74-12.34-5.35c-4.07-1.56-8.19-2.54-12.52-3.01 c-2.05-0.22-4.11-0.18-6.17-0.33c-0.95-0.07-1.89-0.16-2.83-0.27c-0.3-0.03-1.46-0.26-0.05-0.01c-0.55-0.1-1.11-0.18-1.66-0.28 c-3.43-0.62-6.66-1.67-9.94-2.83c1.65,0.59-0.44-0.21-0.9-0.42c-0.69-0.33-1.38-0.68-2.05-1.04c-1.49-0.8-2.93-1.69-4.32-2.65 c-0.61-0.42-1.2-0.86-1.79-1.3c1.33,1-0.18-0.17-0.62-0.56c-1.18-1.01-2.32-2.07-3.41-3.18c-1.03-1.04-2.01-2.13-2.96-3.24 c-0.48-0.56-0.94-1.13-1.4-1.7c-0.16-0.2-0.88-1.15-0.27-0.33c0.67,0.89-0.28-0.39-0.42-0.57c-4.14-5.62-7.84-11.75-10.76-18.09 c-0.22-0.48-0.44-0.97-0.65-1.45c0.14,0.31,0.41,1.02-0.17-0.41c-0.39-0.98-0.77-1.98-1.13-2.97c-0.76-2.12-1.43-4.27-2.02-6.45 c-0.56-2.05-1.04-4.12-1.44-6.2c-0.48-2.44-0.7-3.85-0.88-5.49c-0.5-4.5-0.69-9.04-0.57-13.57c0.05-2.13,0.18-4.27,0.36-6.39 c0.09-1.06,0.19-2.13,0.31-3.19c0.06-0.53,0.12-1.06,0.19-1.59c0.03-0.27,0.07-0.53,0.1-0.8c-0.07,0.54-0.07,0.54,0.01,0.01 c0.67-4.35,1.56-8.67,2.85-12.88c1.42-4.62,2.46-7.16,4.88-11.36c0.99-1.72,2.08-3.39,3.24-5c0.29-0.4,0.58-0.8,0.88-1.2 c-0.19,0.26-0.75,0.92,0.19-0.24c0.78-0.97,1.57-1.91,2.38-2.85c2.71-3.09,5.63-6,8.62-8.81c6.15-5.79,12.64-11.21,18.57-17.24 c12.68-12.9,23.04-27.98,32.16-43.55c9.32-15.93,17.6-32.47,26.12-48.83c4.68-8.98,9.35-17.95,14.03-26.93 c3.88-7.46,8.23-14.74,11.79-22.35c3.63-7.76,5.65-15.61,6.24-24.16c0.27-3.92-3.64-7.67-7.5-7.5c-4.3,0.19-7.21,3.3-7.5,7.5 c-0.06,0.81-0.12,1.61-0.2,2.42c-0.01,0.06-0.35,2.58-0.11,1.04c-0.22,1.41-0.48,2.81-0.81,4.19c-0.61,2.57-1.45,5.05-2.41,7.5 c0.64-1.62-0.16,0.35-0.25,0.56c-0.27,0.59-0.54,1.17-0.82,1.75c-0.57,1.18-1.17,2.35-1.78,3.51c-1.32,2.5-2.7,4.97-4.06,7.46 c-6.81,12.49-13.21,25.22-19.78,37.84c-12.1,23.23-23.59,47.08-38.75,68.52c-3.77,5.33-6.61,9-11.04,14.04 c-4.1,4.67-8.49,9.04-13.07,13.24c-9.14,8.38-18.58,16.37-25.85,26.53c-7.76,10.85-11.35,23.73-13.03,36.81 c-1.68,13.1-1.2,26.45,1.98,39.29c2.81,11.36,7.99,22,14.5,31.69c5.45,8.12,12.01,15.48,20.37,20.68 c9.73,6.05,20.6,7.94,31.86,8.51c0.7,0.04,1.41,0.09,2.11,0.17c-1.68-0.21,0.6,0.15,0.77,0.18c1.15,0.24,2.28,0.53,3.4,0.87 c1.36,0.41,2.69,0.88,4.02,1.38c0.67,0.26,1.33,0.52,1.99,0.8c-1.31-0.54,1.27,0.56,1.51,0.67c5.6,2.49,11.16,5.27,17.08,6.94 c13.65,3.86,28.21,0.74,42.13,1.29c12.3,0.49,24.87,3.94,37.61,6.93c13.53,3.17,27.21,5.45,41.15,4.78 c13.89-0.67,27.62-3.53,40.89-7.6c13.12-4.02,25.86-9.17,38.49-14.49c11.73-4.93,23.88-9.53,33.55-18.07 c9.81-8.67,14.63-21.24,15.03-34.15c0.41-13.17-3.91-25.85-9.86-37.43c-6.19-12.03-14.01-23.24-21.29-34.61 c-7.89-12.32-15.79-24.65-23.68-36.97c-15.79-24.65-31.58-49.29-47.36-73.94c-7.33-11.44-14.85-22.79-21.27-34.78 c-3.1-5.78-5.86-11.58-7.93-17.06c-2.25-5.97-4.03-12.11-5.17-18.38c-1.92-10.61-1.64-22.77,2.04-33.62 c1.73-5.08,4.75-10.46,8.52-15.57c0.97-1.32,1.06-1.42,2.3-2.91c1.03-1.24,2.09-2.46,3.16-3.66c2.15-2.41,4.38-4.74,6.62-7.05 c4.88-5.02,9.86-9.94,14.95-14.76c2.54-2.41,5.11-4.79,7.7-7.15c2.55-2.32,5.47-4.48,7.84-6.99c5.09-5.37,2.25-14.35-2.79-18.6 c-4.64-3.91-10.78-6.01-16.84-6.02c-2.35-0.01-4.7,0.22-7.06,0.24c-1.14,0.01-2.29-0.01-3.43-0.09c-0.37-0.03-2.32-0.37-0.41,0 c-0.76-0.15-1.52-0.28-2.27-0.51c-0.53-0.16-1.81-0.96-0.29-0.05c-0.47-0.28-0.95-0.53-1.41-0.83c1.54,1,0.23,0.01-0.11-0.29 c1.06,0.95,0.33,0.61,0.16,0.13c-0.78-2.22,0.16,1.41-0.38-0.9c-0.17-0.72-0.38-1.43-0.56-2.15c-0.51-2.08-1.09-4.09-2.06-6.02 c-3.02-6.07-9.28-9.02-15.77-9.65c-6.25-0.61-12.05,1.4-17.71,3.79c-0.74,0.31-1.48,0.63-2.22,0.94c0.96-0.4-0.58,0.23-0.8,0.32 c-1.35,0.54-2.71,1.05-4.1,1.46c-0.75,0.22-1.51,0.38-2.27,0.57c-2.05,0.51,1.04,0.14-1.07,0.14c-0.78,0-1.56-0.03-2.34-0.03 c-0.86-0.09-0.76-0.07,0.31,0.04c-0.37-0.07-0.74-0.15-1.1-0.24c-0.91-0.23-1.79-0.54-2.67-0.88c1.8,0.7,0.05-0.03-0.27-0.19 c-0.51-0.26-1.01-0.54-1.51-0.82c-2.21-1.28-4.27-2.78-6.32-4.31c-8.43-6.28-17.87-12.29-28.85-8.7 c-5.87,1.92-10.59,5.77-15.22,9.71c-1.03,0.88-2.05,1.76-3.09,2.62c-0.13,0.1-1.87,1.49-0.58,0.5c-0.52,0.4-1.06,0.79-1.6,1.17 c-1.21,0.84-2.47,1.6-3.78,2.27c-0.45,0.23-0.9,0.45-1.35,0.65c1.1-0.5-1.45,0.52-1.71,0.6c-1.44,0.47-2.9,0.78-4.37,1.11 c-2.26,0.51,1.33-0.03-0.98,0.15c-0.75,0.06-1.5,0.12-2.25,0.14c-1.5,0.04-3.01-0.01-4.5-0.17c0.34,0.03,1.28,0.24-0.24-0.04 c-1.01-0.19-2-0.4-2.99-0.67c-6.18-1.69-11.39-4.9-17.98-7.37c-11.23-4.21-26.54-3.34-33.18,8.16 c-3.37,5.85-3.39,13.14-0.93,19.32c2.66,6.68,7.39,11.56,13.26,15.6c4.91,3.38,10.37,5.88,15.5,8.9 c5.04,2.97,9.86,6.26,14.56,9.74c1.92,1.42-1.08-0.87,0.8,0.61c0.38,0.3,0.76,0.6,1.14,0.91c1.14,0.91,2.27,1.84,3.38,2.78 c2.41,2.04,4.77,4.16,7.05,6.35c4.22,4.04,8.22,8.31,11.96,12.8c3.38,4.05,5.95,7.48,9.28,12.53c3.08,4.67,5.9,9.52,8.46,14.5 c1.8,3.49,6.98,4.8,10.26,2.69C241.87,143.91,242.92,139.68,241,135.94L241,135.94z" style="fill: rgb(91, 95, 117);"/></g></g></g><g><g><g id="__id33_sgftfo9cck"><path d="M233.17,139.75c18.46,4.43,37.83,6.72,56.33,1.28c5.09-1.5,10.02-3.53,14.76-5.91 c2.11-1.06,2.87-4.21,1.61-6.16c-1.39-2.16-3.9-2.74-6.16-1.61c-0.97,0.48-1.94,0.96-2.93,1.41c-0.48,0.22-0.97,0.44-1.46,0.65 c-0.24,0.11-0.49,0.21-0.73,0.31c0.59-0.25,0.14-0.06-0.2,0.08c-1.97,0.8-3.98,1.52-6.01,2.16c-3.97,1.24-8.04,2.14-12.16,2.73 c1.02-0.14-0.39,0.04-0.68,0.08c-0.5,0.06-1,0.11-1.51,0.16c-1.07,0.1-2.15,0.18-3.23,0.24c-2.12,0.12-4.25,0.15-6.38,0.11 c-2.12-0.04-4.25-0.15-6.36-0.32c-1.09-0.09-2.17-0.19-3.26-0.31c-0.55-0.06-1.1-0.12-1.65-0.19c-0.28-0.03-0.55-0.07-0.83-0.11 c0.97,0.12-0.4-0.06-0.48-0.07c-5.48-0.79-10.91-1.91-16.3-3.2c-2.28-0.55-4.98,0.72-5.54,3.14 C229.5,136.52,230.72,139.16,233.17,139.75L233.17,139.75z" style="fill: rgb(91, 95, 117);"/></g></g></g><g><g><g id="__id34_sgftfo9cck"><path d="M230.01,138.61c4.11,10.32,13.87,17.25,24.68,19.17c6.71,1.19,13.41,0.82,20.09-0.4 c5.61-1.02,11.32-2.49,16.59-4.69c5.67-2.36,11.15-5.82,13.91-11.55c1.02-2.12,0.65-4.96-1.61-6.16 c-2.01-1.06-5.07-0.65-6.16,1.61c-0.23,0.48-0.48,0.96-0.76,1.42c-0.15,0.25-1.1,1.48-0.41,0.67c-0.73,0.85-1.48,1.65-2.34,2.37 c-0.19,0.16-0.85,0.63-0.06,0.07c-0.19,0.14-0.38,0.28-0.58,0.42c-0.39,0.27-0.8,0.53-1.21,0.78c-1.04,0.63-2.13,1.19-3.23,1.7 c-0.22,0.1-0.45,0.2-0.67,0.3c0.84-0.37,0.23-0.1,0.05-0.03c-0.52,0.2-1.04,0.4-1.56,0.59c-1.1,0.4-2.2,0.76-3.32,1.09 c-2.72,0.82-5.47,1.55-8.25,2.16c-1.31,0.29-2.62,0.54-3.95,0.76c-0.31,0.05-0.62,0.1-0.93,0.15c-1.49,0.25,0.44-0.05-0.44,0.07 c-0.86,0.11-1.71,0.2-2.57,0.27c-2.8,0.23-5.62,0.24-8.42-0.04c-0.31-0.03-0.62-0.06-0.93-0.1c0.68,0.09-0.1-0.02-0.2-0.04 c-0.64-0.11-1.27-0.22-1.91-0.36c-1.08-0.24-2.16-0.53-3.21-0.87c-0.59-0.19-1.16-0.42-1.75-0.62c-0.18-0.06-0.8-0.33,0.05,0.03 c-0.23-0.1-0.45-0.2-0.68-0.3c-1.07-0.49-2.1-1.03-3.11-1.63c-0.58-0.35-1.15-0.71-1.7-1.1c-0.2-0.14-0.4-0.28-0.6-0.43 c-0.77-0.55,0.54,0.48-0.24-0.19c-0.92-0.8-1.82-1.59-2.64-2.49c-0.41-0.44-0.8-0.9-1.17-1.38c0.57,0.72,0.16,0.21,0.05,0.04 c-0.2-0.3-0.41-0.59-0.61-0.9c-0.36-0.56-0.69-1.13-1-1.72c-0.11-0.21-0.22-0.43-0.33-0.65c-0.51-1.05,0.13,0.41-0.2-0.43 c-0.87-2.18-3.05-3.95-5.54-3.14C231.04,133.76,229.07,136.27,230.01,138.61L230.01,138.61z" style="fill: rgb(91, 95, 117);"/></g></g></g><g><g><g id="__id35_sgftfo9cck"><path d="M210.91,77.68c7.13,4.83,13.4,11.12,18.68,17.97c5.54,7.19,10.23,15.22,13.53,23.68 c1.79,4.6,3.2,9.35,4.1,14.2c0.29,1.59,2.23,2.5,3.69,2.1c1.68-0.46,2.39-2.09,2.1-3.69c-1.7-9.21-5.22-18.08-9.73-26.28 c-4.63-8.42-10.44-16.3-17.23-23.11c-3.71-3.72-7.76-7.11-12.11-10.06c-1.34-0.91-3.33-0.26-4.1,1.08 C208.96,75.05,209.56,76.77,210.91,77.68L210.91,77.68z" style="fill: rgb(91, 95, 117);"/></g></g></g><g><g><g id="__id36_sgftfo9cck"><path d="M259,103.05c7.8,7.95,11.39,19.71,9.31,30.51c-0.31,1.59,0.45,3.24,2.1,3.69c1.47,0.4,3.38-0.5,3.69-2.1 c2.51-13.04-1.53-26.85-10.86-36.35C260.54,96.05,256.3,100.29,259,103.05L259,103.05z" style="fill: rgb(91, 95, 117);"/></g></g></g><g><g><g id="__id37_sgftfo9cck"><path d="M301.92,53.7c-7.67,4-15.32,8.88-18.92,17.13c-2.43,5.57-2.91,11.64-2.13,17.63 c0.52,3.96,1.64,7.67,2.62,11.52c0.8,3.14,0.85,6.44,0.58,9.87c-0.61,7.77-3.11,15.78-6.56,22.65c-0.73,1.45-0.38,3.25,1.08,4.1 c1.33,0.78,3.37,0.38,4.1-1.08c3.24-6.45,5.61-13.46,6.76-20.6c0.59-3.66,0.94-7.38,0.67-11.08c-0.28-3.83-1.5-7.3-2.38-11.01 c-0.79-3.31-1.24-6.28-1.24-9.7c0-0.68,0.02-1.36,0.06-2.04c0.02-0.35,0.05-0.7,0.08-1.05c0.01-0.15,0.03-0.29,0.05-0.44 c0.09-0.93-0.05,0.31,0.03-0.21c0.19-1.27,0.46-2.52,0.84-3.75c0.16-0.54,0.34-1.07,0.54-1.59c0.06-0.16,0.12-0.31,0.19-0.47 c-0.01,0.03-0.2,0.45-0.06,0.14c0.13-0.3,0.27-0.6,0.42-0.9c0.49-1,1.05-1.97,1.68-2.89c0.15-0.22,0.31-0.44,0.47-0.67 c0.07-0.09,0.14-0.19,0.21-0.28c0.26-0.35-0.32,0.39-0.05,0.06c0.34-0.41,0.68-0.82,1.03-1.22c0.7-0.78,1.45-1.51,2.23-2.2 c0.44-0.39,0.9-0.76,1.35-1.13c0.54-0.43-0.3,0.21,0.26-0.2c0.23-0.17,0.47-0.34,0.7-0.51c0.9-0.64,1.83-1.24,2.77-1.82 c1.83-1.12,3.73-2.12,5.63-3.11c1.44-0.75,1.87-2.75,1.08-4.1C305.17,53.32,303.36,52.95,301.92,53.7L301.92,53.7z" style="fill: rgb(91, 95, 117);"/></g></g></g><g><g><g id="__id38_sgftfo9cck"><path d="M305.28,103.41c-5.13,4.92-9.07,10.96-12.11,17.35c-1.28,2.69-2.56,5.39-4.2,7.88 c-1.34,2.04-3.07,4.3-5.55,4.9c-1.88,0.45-1.08,3.35,0.8,2.89c2.74-0.66,4.78-2.75,6.41-4.94c1.86-2.49,3.26-5.31,4.6-8.1 c3.15-6.57,6.86-12.77,12.17-17.86C308.8,104.19,306.67,102.07,305.28,103.41L305.28,103.41z" style="fill: rgb(91, 95, 117);"/></g></g></g><g><g><g id="__id39_sgftfo9cck"><path d="M236.05,336.83c-1.24-0.7-2.42-1.48-3.57-2.33c-0.71-0.52-0.25-0.19-0.1-0.08 c-0.34-0.26-0.67-0.53-1-0.81c-0.61-0.5-1.2-1.01-1.8-1.52c-2.33-2.02-4.63-4.07-7.1-5.93c-5.01-3.77-11.11-6.37-17.47-5.4 c-5.46,0.83-10.78,4.83-12.21,10.31c-1.68,6.43,2.25,13.11,5.7,18.27c3.28,4.92,7.18,9.4,10.49,14.3 c1.64,2.43,3.07,4.95,4.33,7.59c0.06,0.12,0.34,0.79,0.05,0.09c0.13,0.32,0.26,0.65,0.38,0.98c0.22,0.59,0.43,1.19,0.61,1.79 c0.21,0.67,0.39,1.34,0.54,2.02c0.09,0.41,0.18,0.82,0.25,1.23c0.04,0.2,0.16,1.41,0.08,0.46c0.11,1.19,0.17,2.37,0.09,3.57 c-0.02,0.26,0.01,0.61-0.08,0.86c0.29-0.84,0.08-0.48,0.02-0.17c-0.13,0.68-0.26,1.36-0.45,2.03c-0.16,0.56-0.36,1.1-0.54,1.65 c-0.07,0.21-0.35,0.78,0.06-0.11c-0.14,0.31-0.28,0.63-0.44,0.94c-0.23,0.46-0.48,0.91-0.75,1.35c-0.15,0.24-0.3,0.48-0.46,0.72 c-0.12,0.18-0.83,1-0.1,0.18c-0.75,0.84-1.48,1.65-2.36,2.36c0.82-0.66-0.26,0.14-0.58,0.33c-0.24,0.14-0.48,0.28-0.72,0.4 c-0.15,0.08-0.3,0.15-0.45,0.22c-0.3,0.14-0.2,0.1,0.31-0.13c-0.34,0.29-1.16,0.39-1.6,0.49c-0.02,0-1.2,0.21-0.64,0.14 c0.61-0.08-0.86,0.04-0.76,0.04c-0.76,0.02-1.52,0-2.27-0.1c0.21,0.03,0.73,0.14-0.16-0.04c-0.45-0.09-0.9-0.19-1.35-0.3 c-3.48-0.87-5.54-1.92-8.71-3.43c-2.54-1.21-5.04-2.51-7.42-4.02c-0.58-0.37-1.15-0.74-1.71-1.13c-0.25-0.18-0.5-0.36-0.75-0.54 c-0.92-0.68,0.27,0.26-0.4-0.3c-1.02-0.86-2.02-1.73-2.94-2.69c-0.45-0.48-0.87-0.98-1.3-1.48c-0.46-0.53,0.59,0.87-0.06-0.08 c-0.2-0.3-0.41-0.58-0.6-0.88c-0.39-0.6-0.75-1.22-1.07-1.86c-0.11-0.21-0.21-0.43-0.32-0.65c-0.21-0.46-0.2-0.44,0.02,0.08 c-0.09-0.23-0.18-0.45-0.26-0.68c-0.81-2.2-3.09-3.93-5.54-3.14c-2.16,0.7-4.01,3.17-3.14,5.54 c3.91,10.66,13.86,16.49,23.72,20.91c6.06,2.72,13.06,5.33,19.67,2.83c5.52-2.09,9.34-6.49,11.53-11.88 c4.57-11.29-1.13-23.18-7.79-32.29c-3.55-4.85-7.47-9.46-10.51-14.66c-0.74-1.26-1.4-2.56-2.02-3.89 c-0.6-1.26,0.14,0.4-0.17-0.39c-0.14-0.36-0.27-0.72-0.39-1.09c-0.09-0.29-0.18-0.59-0.25-0.89c-0.08-0.3-0.14-0.6-0.19-0.9 c0.06,0.44,0.06,0.39,0.02-0.17c0.01-0.2-0.08-0.78,0.02-0.92c-0.03,0.17-0.05,0.35-0.08,0.52c0.03-0.17,0.06-0.33,0.1-0.49 c0.04-0.17,0.1-0.7,0.23-0.8c-0.25,0.18-0.36,0.67-0.07,0.17c0.16-0.29,0.33-0.57,0.49-0.86c0.39-0.67,0-0.02-0.11,0.11 c0.45-0.51,0.91-0.98,1.43-1.42c-0.77,0.65-0.17,0.15,0.06,0c0.34-0.22,0.68-0.42,1.04-0.61c0.21-0.11,0.42-0.2,0.63-0.3 c-1.03,0.48,0.15-0.02,0.39-0.09c0.28-0.08,0.56-0.16,0.84-0.22c0.36-0.08,1.1-0.45,0.17-0.06c0.56-0.23,1.61-0.05,2.2-0.02 c0.88,0.04,0.23,0.02,0.03-0.01c0.54,0.09,1.08,0.2,1.6,0.34c0.66,0.18,1.31,0.4,1.95,0.64c-0.9-0.34,0.36,0.17,0.44,0.21 c0.38,0.18,0.75,0.37,1.11,0.57c0.74,0.4,1.46,0.84,2.16,1.3c0.64,0.43,1.27,0.88,1.89,1.34c0.65,0.47-0.78-0.65,0.25,0.2 c0.33,0.27,0.66,0.54,0.98,0.81c1.32,1.1,2.59,2.25,3.89,3.37c2.65,2.3,5.39,4.55,8.45,6.28c2.05,1.16,5.01,0.56,6.16-1.61 C238.79,340.86,238.24,338.07,236.05,336.83L236.05,336.83z" style="fill: rgb(91, 95, 117);"/></g></g></g><g><g><g id="__id40_sgftfo9cck"><path d="M217.3,329.04c2.69-3.26,5.38-6.52,8.06-9.78c0.52-0.63,0.88-1.27,0.88-2.12c0-0.74-0.33-1.61-0.88-2.12 c-1.1-1.01-3.18-1.29-4.24,0c-2.69,3.26-5.38,6.52-8.06,9.78c-0.52,0.63-0.88,1.27-0.88,2.12c0,0.74,0.33,1.61,0.88,2.12 C214.16,330.05,216.23,330.33,217.3,329.04L217.3,329.04z" style="fill: rgb(91, 95, 117);"/></g></g></g><g><g><g id="__id41_sgftfo9cck"><path d="M180.01,406.41c2.7-5.14,5.41-10.27,8.11-15.41c0.73-1.39,0.4-3.32-1.08-4.1 c-1.38-0.73-3.32-0.41-4.1,1.08c-2.7,5.14-5.41,10.27-8.11,15.41c-0.73,1.39-0.4,3.32,1.08,4.1 C177.29,408.22,179.23,407.9,180.01,406.41L180.01,406.41z" style="fill: rgb(91, 95, 117);"/></g></g></g><g><g><g id="__id42_sgftfo9cck"><path d="M256.83,195.11c-7.77,3.25-15.88,7.69-18.17,16.49c-1.09,4.16-0.54,8.83,2.05,12.34 c2.51,3.4,5.94,5.58,9.87,7.02c3.92,1.44,8.16,1.68,12.24,2.44c1.97,0.37,3.84,0.91,5.72,1.58c-0.74-0.26-0.06-0.03,0.27,0.13 c0.39,0.18,0.77,0.37,1.15,0.57c0.81,0.43,1.6,0.9,2.36,1.41c0.3,0.2,0.6,0.42,0.9,0.63c0.16,0.11,0.64,0.54-0.04-0.03 c0.14,0.12,0.29,0.23,0.43,0.35c0.66,0.55,1.29,1.13,1.89,1.74c0.6,0.61,1.18,1.25,1.72,1.91c0.12,0.14,0.23,0.28,0.35,0.43 c-0.04-0.05-0.43-0.6-0.15-0.18c0.27,0.41,0.57,0.8,0.83,1.21c0.43,0.67,0.84,1.35,1.21,2.06c0.2,0.38,0.39,0.76,0.57,1.15 c0.08,0.17,0.15,0.33,0.23,0.5c-0.41-0.89-0.04-0.08,0.03,0.11c0.3,0.79,0.56,1.6,0.77,2.43c0.12,0.46,0.18,0.94,0.3,1.4 c0.12,0.51,0-0.1-0.01-0.18c0.04,0.34,0.07,0.68,0.08,1.02c0.02,0.47,0.03,0.94,0,1.42c-0.01,0.27-0.03,0.54-0.06,0.8 c0.05-0.44,0.08-0.44-0.03-0.02c-0.14,0.51-0.26,1.02-0.45,1.52c0.04-0.11,0.32-0.56,0.05-0.16c-0.18,0.27-0.33,0.58-0.49,0.86 c-0.03,0.05-0.4,0.58-0.1,0.18c0.33-0.44-0.4,0.44-0.4,0.44c-0.31,0.33-0.65,0.64-0.99,0.94c-0.1,0.08-0.75,0.58-0.31,0.26 c0.4-0.29-0.27,0.17-0.34,0.22c-0.46,0.31-0.92,0.6-1.4,0.87c-0.48,0.28-0.98,0.53-1.48,0.77c-0.19,0.09-0.38,0.18-0.57,0.26 c0.43-0.18,0.24-0.1-0.08,0.02c-1.05,0.37-2.11,0.7-3.2,0.93c-0.2,0.04-0.41,0.08-0.61,0.12c-0.35,0.06-0.91,0.13-0.25,0.05 c-0.55,0.06-1.11,0.11-1.66,0.13c-1.11,0.04-2.22-0.01-3.33-0.13c-2.35-0.25-4.6,2.25-4.5,4.5c0.12,2.65,1.98,4.23,4.5,4.5 c4.09,0.43,8.4-0.17,12.22-1.73c4.11-1.69,8.17-4.19,10.49-8.11c4.32-7.3,1.23-17.02-3.55-23.31 c-4.89-6.44-11.68-10.76-19.65-12.24c-4.08-0.76-8.31-1-12.24-2.44c-0.34-0.13-0.99-0.45-0.29-0.1 c-0.38-0.19-0.77-0.36-1.15-0.56c-0.38-0.2-0.75-0.41-1.11-0.64c-0.27-0.17-1.28-0.95-0.56-0.34c-0.59-0.5-1.11-1.06-1.65-1.6 c-0.35-0.35,0.13,0.17,0.16,0.22c-0.13-0.2-0.27-0.38-0.39-0.58c-0.18-0.29-0.7-1.4-0.35-0.5c-0.19-0.47-0.32-0.96-0.45-1.45 c-0.02-0.08-0.15-0.72-0.05-0.16c0.1,0.56-0.01-0.24-0.01-0.35c-0.02-0.52,0.02-1.02,0.04-1.53c0.02-0.53-0.01,0.18-0.03,0.24 c0.08-0.31,0.13-0.63,0.21-0.94c0.05-0.19,0.1-0.38,0.16-0.56c0,0.02,0.37-1.11,0.17-0.57c-0.17,0.48,0.05-0.12,0.08-0.18 c0.14-0.3,0.29-0.59,0.45-0.88c0.22-0.4,0.47-0.79,0.72-1.18c0.45-0.7,0.12-0.19,0-0.04c0.16-0.2,0.33-0.4,0.5-0.6 c0.72-0.81,1.53-1.56,2.38-2.23c-0.07,0.06-0.52,0.36-0.09,0.08c0.29-0.19,0.56-0.4,0.84-0.59c0.46-0.3,0.92-0.59,1.4-0.87 c0.89-0.52,1.81-1,2.75-1.45c0.5-0.24,1-0.47,1.51-0.7c0.19-0.08,0.38-0.17,0.57-0.25c0.06-0.03,1.3-0.55,0.45-0.19 c2.16-0.9,3.96-3.02,3.14-5.54C261.7,196.17,259.16,194.14,256.83,195.11L256.83,195.11z" style="fill: rgb(91, 95, 117);"/></g></g></g><g><g><g id="__id43_sgftfo9cck"><path d="M238.03,188.64c1.89,2.56,3.53,5.29,4.9,8.16c0.15,0.32,0.3,0.64,0.45,0.96c0.04,0.09,0.48,1.11,0.3,0.67 c0.31,0.75,0.6,1.5,0.87,2.26c0.54,1.52,1.01,3.07,1.4,4.63c0.39,1.52,2.17,2.59,3.69,2.1c1.57-0.51,2.51-2.06,2.1-3.69 c-1.65-6.5-4.54-12.71-8.52-18.12c-0.93-1.26-2.64-2.02-4.1-1.08C237.86,185.34,237.04,187.29,238.03,188.64L238.03,188.64z" style="fill: rgb(91, 95, 117);"/></g></g></g><g><g><g id="__id44_sgftfo9cck"><path d="M276.19,267.04c2.01,2.57,4.03,5.14,6.04,7.71c0.44,0.56,1.44,0.88,2.12,0.88c0.74,0,1.61-0.33,2.12-0.88 c0.52-0.57,0.91-1.32,0.88-2.12c-0.04-0.27-0.07-0.53-0.11-0.8c-0.14-0.51-0.4-0.95-0.77-1.32c-2.01-2.57-4.03-5.14-6.04-7.71 c-0.44-0.56-1.44-0.88-2.12-0.88c-0.74,0-1.61,0.33-2.12,0.88c-0.52,0.57-0.91,1.32-0.88,2.12c0.04,0.27,0.07,0.53,0.11,0.8 C275.57,266.22,275.82,266.66,276.19,267.04L276.19,267.04z" style="fill: rgb(91, 95, 117);"/></g></g></g><g><g><g id="__id45_sgftfo9cck"><path d="M355.11,364.67c-5.03-2.15-10.14-3.49-15.6-3.96c-2.37-0.2-4.75-0.21-7.12-0.01 c-2.44,0.2-4.99,0.47-7.32,1.27c-2.73,0.95-5.02,2.41-6.74,4.76c-1.61,2.21-2.13,5.12-1.77,7.79c0.71,5.25,4.37,9.27,9.14,11.34 c5.13,2.23,10.72,2.51,16.24,2.55c2.41,0.02,4.82,0,7.23,0.19c0.55,0.04,1.09,0.1,1.63,0.15c0.89,0.1,0.2,0.03,0.02,0 c0.27,0.04,0.54,0.08,0.81,0.13c1.13,0.2,2.26,0.46,3.35,0.8c0.26,0.08,0.51,0.17,0.76,0.25c0.12,0.04,0.91,0.33,0.4,0.13 c-0.51-0.19,0.27,0.12,0.38,0.17c0.24,0.11,0.48,0.23,0.71,0.36c0.47,0.25,0.93,0.52,1.38,0.82c0.1,0.06,0.79,0.54,0.36,0.23 c-0.43-0.31,0.38,0.32,0.46,0.4c0.39,0.35,0.75,0.72,1.1,1.1c0.17,0.19,0.34,0.39,0.5,0.59c-0.12-0.15-0.45-0.67-0.01,0.03 c0.28,0.44,0.56,0.87,0.81,1.33c0.12,0.23,0.23,0.46,0.35,0.7c-0.28-0.57-0.07-0.19,0.06,0.19c0.15,0.43,0.28,0.86,0.39,1.3 c0.07,0.3,0.22,1.69,0.16,0.71c0.03,0.52,0.07,1.03,0.05,1.55c-0.01,0.25-0.05,0.52-0.05,0.78c0-1.02,0.01-0.09-0.06,0.22 c-0.1,0.47-0.25,0.92-0.39,1.38c-0.03,0.08-0.24,0.65-0.03,0.13c0.22-0.56-0.08,0.15-0.14,0.28c-0.22,0.43-0.45,0.84-0.72,1.24 c-0.08,0.12-0.51,0.75-0.17,0.27c0.36-0.5-0.25,0.28-0.33,0.37c-0.4,0.44-0.84,0.84-1.3,1.23c0.72-0.61-0.26,0.14-0.55,0.31 c-0.21,0.12-0.42,0.22-0.63,0.34c-0.96,0.51,0.81-0.19-0.25,0.09c-0.29,0.08-0.57,0.18-0.87,0.25c-0.1,0.03-1.23,0.22-0.72,0.16 c0.52-0.07-0.4,0.02-0.51,0.02c-0.37,0.02-0.74,0.02-1.12,0.01c-0.3-0.01-0.6-0.03-0.9-0.05c-1.38-0.08,0.4,0.11-0.38-0.03 c-1.44-0.27-2.85-0.6-4.26-1.02c-2.57-0.77-5.14-1.64-7.65-2.6c-0.28-0.11-0.55-0.21-0.83-0.32c-1.34-0.53,0.75,0.36-0.55-0.23 c-0.6-0.27-1.2-0.55-1.79-0.85c-1.24-0.63-2.44-1.35-3.58-2.16c-1.93-1.36-5.09-0.41-6.16,1.61c-1.22,2.31-0.44,4.7,1.61,6.16 c4.18,2.95,9.1,4.63,13.92,6.23c5.07,1.69,10.65,3.21,15.94,1.57c4.94-1.53,8.59-5.35,10.43-10.1c1.8-4.63,1.07-9.94-1.23-14.26 c-2.46-4.61-6.8-7.7-11.67-9.38c-4.57-1.57-9.55-1.74-14.34-1.78c-2.63-0.02-5.26,0-7.88-0.23c-0.32-0.03-0.63-0.06-0.95-0.09 c-0.09-0.01-0.88-0.12-0.22-0.02c-0.63-0.09-1.25-0.21-1.87-0.34c-0.57-0.12-1.13-0.27-1.68-0.43c-0.25-0.08-0.5-0.16-0.75-0.24 c-0.1-0.03-1.11-0.41-0.57-0.2c0.39,0.15-0.7-0.34-0.89-0.44c-0.46-0.25-0.9-0.52-1.34-0.81c-0.71-0.47-0.15-0.12-0.02,0 c-0.19-0.17-0.39-0.34-0.58-0.52c-0.19-0.18-0.36-0.37-0.54-0.56c-0.76-0.81,0.3,0.63-0.22-0.32c-0.12-0.22-0.25-0.44-0.37-0.66 c-0.13-0.24-0.18-0.71,0,0.03c-0.11-0.43-0.23-0.86-0.34-1.28c-0.17-0.62-0.04,0.71,0.03,0.07c0.02-0.23,0.02-0.51,0-0.75 c-0.06-0.63-0.22,0.69-0.02,0.09c0.1-0.29,0.16-0.6,0.25-0.89c-0.25,0.8-0.11,0.28,0.02,0.07c0.59-0.93-0.6,0.47,0.19-0.25 c0.18-0.16,0.35-0.33,0.53-0.49c-0.28,0.26-0.45,0.3-0.03,0.07c0.21-0.12,0.43-0.24,0.63-0.36c0.97-0.57-0.79,0.22,0.28-0.14 c0.54-0.18,1.07-0.35,1.62-0.48c0.55-0.13,1.1-0.23,1.66-0.33c0.78-0.14,0.22-0.04,0.05-0.02c0.37-0.05,0.74-0.09,1.11-0.12 c1.4-0.14,2.81-0.21,4.22-0.21c1.34,0,2.67,0.07,4,0.19c0.3,0.03,0.59,0.06,0.89,0.09c0.15,0.02,0.29,0.04,0.44,0.05 c-0.39-0.05-0.42-0.05-0.09-0.01c0.66,0.12,1.32,0.22,1.97,0.35c1.38,0.28,2.75,0.62,4.1,1.04c0.64,0.2,1.27,0.41,1.9,0.63 c0.28,0.1,0.56,0.2,0.83,0.31c0.14,0.05,1.3,0.53,0.57,0.22c2.16,0.92,4.92,0.72,6.16-1.61 C357.74,368.9,357.42,365.66,355.11,364.67L355.11,364.67z" style="fill: rgb(91, 95, 117);"/></g></g></g><g><g><g id="__id46_sgftfo9cck"><path d="M327.61,347.83c1.67,5.62,3.34,11.24,5,16.86c0.45,1.5,2.13,2.6,3.69,2.1c1.52-0.49,2.57-2.08,2.1-3.69 c-1.67-5.62-3.34-11.24-5-16.86c-0.45-1.5-2.13-2.6-3.69-2.1C328.18,344.63,327.13,346.21,327.61,347.83L327.61,347.83z" style="fill: rgb(91, 95, 117);"/></g></g></g><g><g><g id="__id47_sgftfo9cck"><path d="M347.91,411.5c2.03,5.75,4.06,11.5,6.09,17.26c0.52,1.48,2.07,2.62,3.69,2.1 c1.46-0.47,2.65-2.11,2.1-3.69c-2.03-5.75-4.06-11.5-6.09-17.26c-0.52-1.48-2.07-2.62-3.69-2.1 C348.55,408.28,347.35,409.91,347.91,411.5L347.91,411.5z" style="fill: rgb(91, 95, 117);"/></g></g></g><g><g><g id="__id48_sgftfo9cck"><path d="M301.13,212.5c3.35-2.66,5.69-6.64,7.32-10.53c1.69-4.02,2.81-8.61,1.74-12.94 c-0.39-1.57-2.16-2.52-3.69-2.1c-1.6,0.44-2.49,2.11-2.1,3.69c0.05,0.19,0.08,0.37,0.13,0.56c0.08,0.36,0.05,0.4,0.02,0.01 c0.04,0.41,0.07,0.81,0.07,1.22c0,0.43-0.01,0.86-0.05,1.28c-0.01,0.08-0.1,0.95-0.01,0.26c-0.02,0.18-0.05,0.36-0.08,0.54 c-0.16,0.93-0.38,1.85-0.65,2.75c-0.14,0.47-0.29,0.93-0.46,1.39c-0.1,0.28-0.21,0.55-0.31,0.83c-0.18,0.48,0.03-0.04-0.1,0.24 c-0.78,1.79-1.72,3.5-2.84,5.1c-0.13,0.19-0.27,0.38-0.41,0.57c-0.32,0.44,0.09-0.1-0.11,0.15c-0.28,0.34-0.56,0.68-0.85,1 c-0.57,0.63-1.19,1.21-1.85,1.73c-1.27,1.01-1.05,3.19,0,4.24C298.15,213.75,299.86,213.51,301.13,212.5L301.13,212.5z" style="fill: rgb(91, 95, 117);"/></g></g></g><g><g><g id="__id49_sgftfo9cck"><path d="M318.74,228.57c1.41-1.37,2.63-3,3.5-4.76c1-2.03,1.56-4.06,1.85-6.3c0.09-0.71-0.4-1.64-0.88-2.12 c-0.52-0.52-1.37-0.91-2.12-0.88c-0.78,0.03-1.58,0.29-2.12,0.88c-0.16,0.2-0.31,0.4-0.47,0.61c-0.27,0.47-0.41,0.97-0.41,1.51 c-0.01,0.05-0.01,0.1-0.02,0.14c0.04-0.27,0.07-0.53,0.11-0.8c-0.18,1.3-0.53,2.56-1.03,3.78c0.1-0.24,0.2-0.48,0.3-0.72 c-0.51,1.21-1.17,2.34-1.97,3.39c0.16-0.2,0.31-0.4,0.47-0.61c-0.45,0.57-0.93,1.12-1.45,1.62c-1.13,1.09-1.18,3.16,0,4.24 C315.71,229.68,317.54,229.74,318.74,228.57L318.74,228.57z" style="fill: rgb(91, 95, 117);"/></g></g></g><g><g><g id="__id50_sgftfo9cck"><path d="M327.69,263.76c4-3.41,7.12-7.82,8.47-12.94c1.37-5.2,0.9-10.67-0.34-15.84c-0.9-3.75-6.69-2.16-5.79,1.6 c1.01,4.22,1.39,8.64,0.34,12.65c-1.08,4.11-3.55,7.42-6.93,10.3c-1.23,1.05-1.08,3.16,0,4.24 C324.67,264.98,326.45,264.81,327.69,263.76L327.69,263.76z" style="fill: rgb(91, 95, 117);"/></g></g></g><g><g><g id="__id51_sgftfo9cck"><path d="M343.16,277.18c4.41-6.02,8.64-13.45,7.38-21.18c-0.25-1.55-2.26-2.56-3.69-2.1 c-1.68,0.54-2.37,2.03-2.1,3.69c0.05,0.28,0.02,0.31,0,0.01c0.01,0.18,0.03,0.36,0.04,0.55c0.02,0.42,0.02,0.83,0,1.25 c-0.01,0.19-0.02,0.37-0.04,0.56c0,0.06-0.06,0.63-0.02,0.31c0.04-0.32-0.04,0.26-0.05,0.31c-0.03,0.19-0.07,0.38-0.11,0.57 c-0.17,0.82-0.4,1.63-0.67,2.43c-0.13,0.38-0.27,0.76-0.41,1.14c-0.07,0.19-0.15,0.38-0.23,0.57c0.15-0.37-0.07,0.15-0.13,0.27 c-1.38,3.05-3.2,5.89-5.17,8.58c-0.93,1.27-0.25,3.4,1.08,4.1C340.62,279.08,342.17,278.54,343.16,277.18L343.16,277.18z" style="fill: rgb(91, 95, 117);"/></g></g></g><g><g><g id="__id52_sgftfo9cck"><path d="M348.69,306.83c12.78-5.4,18.4-21.93,12.59-34.24c-0.69-1.47-2.79-1.84-4.1-1.08 c-1.5,0.88-1.77,2.63-1.08,4.1c0.4,0.85,0.89,2.27,1.17,3.54c0.32,1.46,0.38,2.06,0.39,3.66c0.01,1.43-0.1,2.65-0.3,3.69 c-0.27,1.44-0.68,2.83-1.19,4.2c-0.31,0.82-1.03,2.27-1.7,3.35c-0.8,1.3-1.23,1.89-2.25,2.99c-1.94,2.1-3.83,3.43-6.57,4.59 c-1.49,0.63-1.82,2.83-1.08,4.1C345.49,307.3,347.19,307.46,348.69,306.83L348.69,306.83z" style="fill: rgb(91, 95, 117);"/></g></g></g><g><g><g id="__id53_sgftfo9cck"><path d="M368.07,314.23c4.44-4.93,8.88-12,6.58-18.89c-0.5-1.49-2.09-2.61-3.69-2.1c-1.48,0.48-2.63,2.1-2.1,3.69 c0.1,0.31,0.2,0.62,0.27,0.94c0.02,0.07,0.13,0.42,0.1,0.48c0.06-0.08-0.05-0.55-0.01-0.08c0.05,0.69,0.02,1.37-0.02,2.06 c-0.03,0.44,0.11-0.5,0.01-0.07c-0.04,0.16-0.06,0.33-0.09,0.49c-0.07,0.33-0.15,0.65-0.24,0.97c-0.09,0.33-0.2,0.65-0.31,0.97 c-0.06,0.16-0.13,0.32-0.18,0.48c-0.15,0.44,0.29-0.63-0.05,0.12c-0.59,1.28-1.29,2.5-2.08,3.66c-0.2,0.29-0.4,0.58-0.61,0.86 c-0.04,0.06-0.47,0.62-0.24,0.32c0.2-0.26-0.13,0.16-0.17,0.21c-0.45,0.56-0.92,1.11-1.4,1.64c-1.05,1.17-1.24,3.11,0,4.24 C364.98,315.28,366.95,315.48,368.07,314.23L368.07,314.23z" style="fill: rgb(91, 95, 117);"/></g></g></g><g><g><g id="__id54_sgftfo9cck"><path d="M373.65,337.81c8.09-7.09,11.79-18.05,10.27-28.6c-0.23-1.61-2.27-2.49-3.69-2.1 c-1.72,0.47-2.33,2.08-2.1,3.69c1.19,8.31-2.31,17.14-8.73,22.76c-1.22,1.07-1.09,3.15,0,4.24 C370.62,339.02,372.43,338.88,373.65,337.81L373.65,337.81z" style="fill: rgb(91, 95, 117);"/></g></g></g><g><g><g id="__id55_sgftfo9cck"><path d="M391.04,353.86c3.44-7.86,8.51-16.79,5.77-25.63c-1.14-3.68-6.93-2.11-5.79,1.6 c1.06,3.41,0.42,6.81-0.72,10.35c-1.19,3.67-2.9,7.13-4.45,10.66c-0.65,1.48-0.44,3.22,1.08,4.1 C388.21,355.68,390.39,355.36,391.04,353.86L391.04,353.86z" style="fill: rgb(91, 95, 117);"/></g></g></g><g><g><g id="__id56_sgftfo9cck"><path d="M395.96,391.49c5.1-2.93,8.82-7.93,11.28-13.19c2.68-5.75,4.27-12.06,4.36-18.41 c0.05-3.22-0.32-6.52-1.3-9.59c-0.49-1.54-2.08-2.54-3.69-2.1c-1.52,0.42-2.59,2.14-2.1,3.69c1.48,4.63,1.34,9.85,0.36,14.62 c-1.13,5.47-3.01,10.3-6.39,14.8c-0.25,0.34-0.03,0.05-0.38,0.48c-0.23,0.27-0.45,0.54-0.69,0.8c-0.46,0.51-0.94,1.01-1.45,1.48 c-0.28,0.26-0.57,0.52-0.87,0.77c-0.11,0.09-0.22,0.18-0.33,0.27c-0.38,0.3,0.32-0.23-0.07,0.05c-0.57,0.41-1.15,0.79-1.76,1.14 C389.58,388.23,392.6,393.42,395.96,391.49L395.96,391.49z" style="fill: rgb(91, 95, 117);"/></g></g></g><g><g><g id="__id57_sgftfo9cck"><path d="M418.6,385.13c3.16-4.28,4.83-9.65,4.8-14.95c-0.01-1.57-1.37-3.07-3-3c-1.62,0.07-3.01,1.32-3,3 c0,0.61-0.01,1.22-0.06,1.83c-0.02,0.3-0.06,0.61-0.09,0.91c-0.07,0.7,0.1-0.53-0.02,0.11c-0.21,1.17-0.46,2.31-0.83,3.44 c-0.18,0.54-0.35,1.1-0.59,1.61c0.35-0.73-0.1,0.19-0.16,0.33c-0.11,0.24-0.23,0.48-0.36,0.72c-0.54,1.05-1.18,2.05-1.88,3 c-0.94,1.27-0.25,3.4,1.08,4.1C416.07,387.03,417.6,386.48,418.6,385.13L418.6,385.13z" style="fill: rgb(91, 95, 117);"/></g></g></g><g><g><g id="__id58_sgftfo9cck"><path d="M418.48,421.6c5.41-5.35,9.9-11.81,12.67-18.9c2.69-6.89,3.23-15.09-1.34-21.34 c-0.96-1.31-2.6-1.95-4.1-1.08c-1.29,0.75-2.04,2.79-1.08,4.1c1.91,2.61,2.63,5.01,2.62,8.06c-0.01,2.95-0.8,6-2.02,8.99 c-2.39,5.9-6.43,11.4-11,15.92C411.49,420.07,415.73,424.32,418.48,421.6L418.48,421.6z" style="fill: rgb(91, 95, 117);"/></g></g></g><g><g><g id="__id59_sgftfo9cck"><path d="M412.67,448.83c2.99-0.32,6-0.5,8.96-1.08c2.88-0.56,6.12-1.61,8.07-3.94c1-1.2,1.27-3.08,0-4.24 c-1.11-1.02-3.17-1.29-4.24,0c-0.17,0.2-0.35,0.4-0.54,0.58c-0.23,0.21-0.51,0.27,0.11-0.05c-0.09,0.05-0.18,0.13-0.27,0.19 c-0.26,0.18-0.53,0.34-0.81,0.48c-0.13,0.07-0.26,0.14-0.4,0.2c-0.1,0.05-0.6,0.27-0.14,0.07c0.46-0.2-0.05,0.02-0.16,0.05 c-0.15,0.05-0.3,0.11-0.44,0.16c-0.31,0.1-0.61,0.2-0.92,0.28c-0.67,0.19-1.36,0.34-2.05,0.47c-0.33,0.06-0.67,0.12-1.01,0.17 c-0.17,0.03-0.34,0.05-0.51,0.08c-0.5,0.07-0.14,0.11,0.09-0.01c-0.24,0.12-0.73,0.09-1,0.12c-0.33,0.04-0.66,0.07-0.99,0.11 c-1.25,0.13-2.5,0.23-3.75,0.36c-1.56,0.17-3.08,1.26-3,3C409.73,447.32,411,449.01,412.67,448.83L412.67,448.83z" style="fill: rgb(91, 95, 117);"/></g></g></g><g><g><g id="__id60_sgftfo9cck"><path d="M423.26,433.8c3.72-2.09,7.1-5.16,9.88-8.37c2.98-3.44,5.92-7.65,5.21-12.42 c-0.23-1.56-2.28-2.55-3.69-2.1c-1.7,0.55-2.34,2.02-2.1,3.69c-0.16-1.1-0.07,0.09-0.06,0.41c0.01,0.48,0.19-0.78-0.01,0 c-0.04,0.16-0.07,0.33-0.12,0.49c-0.1,0.38-0.35,0.8-0.41,1.18c0.09-0.6,0.15-0.34-0.01-0.02c-0.11,0.24-0.24,0.47-0.36,0.7 c-0.44,0.8-0.94,1.57-1.48,2.31c-0.09,0.12-0.7,0.9-0.2,0.28c-0.14,0.18-0.28,0.35-0.43,0.53c-0.34,0.41-0.69,0.82-1.05,1.22 c-1.37,1.52-2.86,2.94-4.43,4.26c-0.22,0.18-0.44,0.36-0.66,0.54c-0.15,0.12-0.64,0.56-0.04,0.04c-0.34,0.29-0.73,0.55-1.1,0.81 c-0.64,0.45-1.3,0.88-1.98,1.26c-1.37,0.77-1.94,2.76-1.08,4.1C420.05,434.11,421.8,434.62,423.26,433.8L423.26,433.8z" style="fill: rgb(91, 95, 117);"/></g></g></g></svg>